<?xml version="1.0" encoding="UTF-8" standalone="no"?>
<!-- Created with Inkscape (http://www.inkscape.org/) -->

<svg
   version="1.1"
   id="svg1"
   width="358.29868"
   height="226.77068"
   viewBox="0 0 358.29868 226.77068"
   sodipodi:docname="epma_sketch.svg"
   inkscape:version="1.3 (0e150ed6c4, 2023-07-21)"
   xmlns:inkscape="http://www.inkscape.org/namespaces/inkscape"
   xmlns:sodipodi="http://sodipodi.sourceforge.net/DTD/sodipodi-0.dtd"
   xmlns="http://www.w3.org/2000/svg"
   xmlns:svg="http://www.w3.org/2000/svg">
  <defs
     id="defs1" />
  <sodipodi:namedview
     id="namedview1"
     pagecolor="#ffffff"
     bordercolor="#cccccc"
     borderopacity="1"
     inkscape:showpageshadow="0"
     inkscape:pageopacity="1"
     inkscape:pagecheckerboard="0"
     inkscape:deskcolor="#d1d1d1"
     inkscape:zoom="4.741854"
     inkscape:cx="179.14934"
     inkscape:cy="113.35229"
     inkscape:window-width="2560"
     inkscape:window-height="1403"
     inkscape:window-x="0"
     inkscape:window-y="0"
     inkscape:window-maximized="1"
     inkscape:current-layer="g1">
    <inkscape:page
       x="0"
       y="0"
       inkscape:label="1"
       id="page1"
       width="358.29868"
       height="226.77068"
       margin="0"
       bleed="0" />
  </sodipodi:namedview>
  <g
     id="g1"
     inkscape:groupmode="layer"
     inkscape:label="1">
    <path
       id="path1"
       d="m -102.04825,0 h 204.0965"
       style="fill:none;stroke:#000000;stroke-width:0.3985;stroke-linecap:butt;stroke-linejoin:miter;stroke-miterlimit:10;stroke-dasharray:none;stroke-opacity:1"
       transform="matrix(1.3333333,0,0,-1.3333333,149.66933,81.637333)" />
    <path
       id="path2"
       d="M -102.04825,-102.04825 V 0"
       style="fill:none;stroke:#808080;stroke-width:0.3985;stroke-linecap:butt;stroke-linejoin:miter;stroke-miterlimit:10;stroke-dasharray:2.98883, 2.98883;stroke-dashoffset:0;stroke-opacity:1"
       transform="matrix(1.3333333,0,0,-1.3333333,149.66933,81.637333)" />
    <path
       id="path3"
       d="M -85.04019,-102.04825 V 0"
       style="fill:none;stroke:#808080;stroke-width:0.3985;stroke-linecap:butt;stroke-linejoin:miter;stroke-miterlimit:10;stroke-dasharray:2.98883, 2.98883;stroke-dashoffset:0;stroke-opacity:1"
       transform="matrix(1.3333333,0,0,-1.3333333,149.66933,81.637333)" />
    <path
       id="path4"
       d="M -68.03217,-102.04825 V 0"
       style="fill:none;stroke:#808080;stroke-width:0.3985;stroke-linecap:butt;stroke-linejoin:miter;stroke-miterlimit:10;stroke-dasharray:2.98883, 2.98883;stroke-dashoffset:0;stroke-opacity:1"
       transform="matrix(1.3333333,0,0,-1.3333333,149.66933,81.637333)" />
    <path
       id="path5"
       d="M -51.02411,-102.04825 V 0"
       style="fill:none;stroke:#808080;stroke-width:0.3985;stroke-linecap:butt;stroke-linejoin:miter;stroke-miterlimit:10;stroke-dasharray:2.98883, 2.98883;stroke-dashoffset:0;stroke-opacity:1"
       transform="matrix(1.3333333,0,0,-1.3333333,149.66933,81.637333)" />
    <path
       id="path6"
       d="M -34.01608,-102.04825 V 0"
       style="fill:none;stroke:#808080;stroke-width:0.3985;stroke-linecap:butt;stroke-linejoin:miter;stroke-miterlimit:10;stroke-dasharray:2.98883, 2.98883;stroke-dashoffset:0;stroke-opacity:1"
       transform="matrix(1.3333333,0,0,-1.3333333,149.66933,81.637333)" />
    <path
       id="path7"
       d="M -17.00801,-102.04825 V 0"
       style="fill:none;stroke:#808080;stroke-width:0.3985;stroke-linecap:butt;stroke-linejoin:miter;stroke-miterlimit:10;stroke-dasharray:2.98883, 2.98883;stroke-dashoffset:0;stroke-opacity:1"
       transform="matrix(1.3333333,0,0,-1.3333333,149.66933,81.637333)" />
    <path
       id="path8"
       d="M 0,-102.04825 V 0"
       style="fill:none;stroke:#808080;stroke-width:0.3985;stroke-linecap:butt;stroke-linejoin:miter;stroke-miterlimit:10;stroke-dasharray:2.98883, 2.98883;stroke-dashoffset:0;stroke-opacity:1"
       transform="matrix(1.3333333,0,0,-1.3333333,149.66933,81.637333)" />
    <path
       id="path9"
       d="M 17.00801,-102.04825 V 0"
       style="fill:none;stroke:#808080;stroke-width:0.3985;stroke-linecap:butt;stroke-linejoin:miter;stroke-miterlimit:10;stroke-dasharray:2.98883, 2.98883;stroke-dashoffset:0;stroke-opacity:1"
       transform="matrix(1.3333333,0,0,-1.3333333,149.66933,81.637333)" />
    <path
       id="path10"
       d="M 34.01608,-102.04825 V 0"
       style="fill:none;stroke:#808080;stroke-width:0.3985;stroke-linecap:butt;stroke-linejoin:miter;stroke-miterlimit:10;stroke-dasharray:2.98883, 2.98883;stroke-dashoffset:0;stroke-opacity:1"
       transform="matrix(1.3333333,0,0,-1.3333333,149.66933,81.637333)" />
    <path
       id="path11"
       d="M 51.02411,-102.04825 V 0"
       style="fill:none;stroke:#808080;stroke-width:0.3985;stroke-linecap:butt;stroke-linejoin:miter;stroke-miterlimit:10;stroke-dasharray:2.98883, 2.98883;stroke-dashoffset:0;stroke-opacity:1"
       transform="matrix(1.3333333,0,0,-1.3333333,149.66933,81.637333)" />
    <path
       id="path12"
       d="M 68.03217,-102.04825 V 0"
       style="fill:none;stroke:#808080;stroke-width:0.3985;stroke-linecap:butt;stroke-linejoin:miter;stroke-miterlimit:10;stroke-dasharray:2.98883, 2.98883;stroke-dashoffset:0;stroke-opacity:1"
       transform="matrix(1.3333333,0,0,-1.3333333,149.66933,81.637333)" />
    <path
       id="path13"
       d="M 85.04019,-102.04825 V 0"
       style="fill:none;stroke:#808080;stroke-width:0.3985;stroke-linecap:butt;stroke-linejoin:miter;stroke-miterlimit:10;stroke-dasharray:2.98883, 2.98883;stroke-dashoffset:0;stroke-opacity:1"
       transform="matrix(1.3333333,0,0,-1.3333333,149.66933,81.637333)" />
    <path
       id="path14"
       d="M 102.04825,-102.04825 V 0"
       style="fill:none;stroke:#808080;stroke-width:0.3985;stroke-linecap:butt;stroke-linejoin:miter;stroke-miterlimit:10;stroke-dasharray:2.98883, 2.98883;stroke-dashoffset:0;stroke-opacity:1"
       transform="matrix(1.3333333,0,0,-1.3333333,149.66933,81.637333)" />
    <path
       id="path15"
       d="m -102.04825,-102.04825 h 204.0965"
       style="fill:none;stroke:#808080;stroke-width:0.3985;stroke-linecap:butt;stroke-linejoin:miter;stroke-miterlimit:10;stroke-dasharray:2.98883, 2.98883;stroke-dashoffset:0;stroke-opacity:1"
       transform="matrix(1.3333333,0,0,-1.3333333,149.66933,81.637333)" />
    <path
       id="path16"
       d="m -102.04825,-85.04019 h 204.0965"
       style="fill:none;stroke:#808080;stroke-width:0.3985;stroke-linecap:butt;stroke-linejoin:miter;stroke-miterlimit:10;stroke-dasharray:2.98883, 2.98883;stroke-dashoffset:0;stroke-opacity:1"
       transform="matrix(1.3333333,0,0,-1.3333333,149.66933,81.637333)" />
    <path
       id="path17"
       d="m -102.04825,-68.03217 h 204.0965"
       style="fill:none;stroke:#808080;stroke-width:0.3985;stroke-linecap:butt;stroke-linejoin:miter;stroke-miterlimit:10;stroke-dasharray:2.98883, 2.98883;stroke-dashoffset:0;stroke-opacity:1"
       transform="matrix(1.3333333,0,0,-1.3333333,149.66933,81.637333)" />
    <path
       id="path18"
       d="m -102.04825,-51.02411 h 204.0965"
       style="fill:none;stroke:#808080;stroke-width:0.3985;stroke-linecap:butt;stroke-linejoin:miter;stroke-miterlimit:10;stroke-dasharray:2.98883, 2.98883;stroke-dashoffset:0;stroke-opacity:1"
       transform="matrix(1.3333333,0,0,-1.3333333,149.66933,81.637333)" />
    <path
       id="path19"
       d="m -102.04825,-34.01608 h 204.0965"
       style="fill:none;stroke:#808080;stroke-width:0.3985;stroke-linecap:butt;stroke-linejoin:miter;stroke-miterlimit:10;stroke-dasharray:2.98883, 2.98883;stroke-dashoffset:0;stroke-opacity:1"
       transform="matrix(1.3333333,0,0,-1.3333333,149.66933,81.637333)" />
    <path
       id="path20"
       d="m -102.04825,-17.00801 h 204.0965"
       style="fill:none;stroke:#808080;stroke-width:0.3985;stroke-linecap:butt;stroke-linejoin:miter;stroke-miterlimit:10;stroke-dasharray:2.98883, 2.98883;stroke-dashoffset:0;stroke-opacity:1"
       transform="matrix(1.3333333,0,0,-1.3333333,149.66933,81.637333)" />
    <path
       id="path21"
       d="M 102.04825,-102.04825 120.18883,-88.442"
       style="fill:none;stroke:#808080;stroke-width:0.3985;stroke-linecap:butt;stroke-linejoin:miter;stroke-miterlimit:10;stroke-dasharray:2.98883, 2.98883;stroke-dashoffset:0;stroke-opacity:1"
       transform="matrix(1.3333333,0,0,-1.3333333,149.66933,81.637333)" />
    <path
       id="path22"
       d="m 102.04825,-85.04019 18.14058,13.60623"
       style="fill:none;stroke:#808080;stroke-width:0.3985;stroke-linecap:butt;stroke-linejoin:miter;stroke-miterlimit:10;stroke-dasharray:2.98883, 2.98883;stroke-dashoffset:0;stroke-opacity:1"
       transform="matrix(1.3333333,0,0,-1.3333333,149.66933,81.637333)" />
    <path
       id="path23"
       d="m 102.04825,-68.03217 18.14058,13.60625"
       style="fill:none;stroke:#808080;stroke-width:0.3985;stroke-linecap:butt;stroke-linejoin:miter;stroke-miterlimit:10;stroke-dasharray:2.98883, 2.98883;stroke-dashoffset:0;stroke-opacity:1"
       transform="matrix(1.3333333,0,0,-1.3333333,149.66933,81.637333)" />
    <path
       id="path24"
       d="m 102.04825,-51.02411 18.14058,13.60623"
       style="fill:none;stroke:#808080;stroke-width:0.3985;stroke-linecap:butt;stroke-linejoin:miter;stroke-miterlimit:10;stroke-dasharray:2.98883, 2.98883;stroke-dashoffset:0;stroke-opacity:1"
       transform="matrix(1.3333333,0,0,-1.3333333,149.66933,81.637333)" />
    <path
       id="path25"
       d="m 102.04825,-34.01608 18.14058,13.60624"
       style="fill:none;stroke:#808080;stroke-width:0.3985;stroke-linecap:butt;stroke-linejoin:miter;stroke-miterlimit:10;stroke-dasharray:2.98883, 2.98883;stroke-dashoffset:0;stroke-opacity:1"
       transform="matrix(1.3333333,0,0,-1.3333333,149.66933,81.637333)" />
    <path
       id="path26"
       d="M 102.04825,-17.00801 120.18883,-3.4018"
       style="fill:none;stroke:#808080;stroke-width:0.3985;stroke-linecap:butt;stroke-linejoin:miter;stroke-miterlimit:10;stroke-dasharray:2.98883, 2.98883;stroke-dashoffset:0;stroke-opacity:1"
       transform="matrix(1.3333333,0,0,-1.3333333,149.66933,81.637333)" />
    <path
       id="path27"
       d="m 102.04825,0 18.14058,13.6062"
       style="fill:none;stroke:#808080;stroke-width:0.3985;stroke-linecap:butt;stroke-linejoin:miter;stroke-miterlimit:10;stroke-dasharray:2.98883, 2.98883;stroke-dashoffset:0;stroke-opacity:1"
       transform="matrix(1.3333333,0,0,-1.3333333,149.66933,81.637333)" />
    <path
       id="path28"
       d="m -102.04825,0 18.14061,13.6062"
       style="fill:none;stroke:#808080;stroke-width:0.3985;stroke-linecap:butt;stroke-linejoin:miter;stroke-miterlimit:10;stroke-dasharray:2.98883, 2.98883;stroke-dashoffset:0;stroke-opacity:1"
       transform="matrix(1.3333333,0,0,-1.3333333,149.66933,81.637333)" />
    <path
       id="path29"
       d="M -85.04019,0 -66.8996,13.6062"
       style="fill:none;stroke:#808080;stroke-width:0.3985;stroke-linecap:butt;stroke-linejoin:miter;stroke-miterlimit:10;stroke-dasharray:2.98883, 2.98883;stroke-dashoffset:0;stroke-opacity:1"
       transform="matrix(1.3333333,0,0,-1.3333333,149.66933,81.637333)" />
    <path
       id="path30"
       d="m -68.03217,0 18.14063,13.6062"
       style="fill:none;stroke:#808080;stroke-width:0.3985;stroke-linecap:butt;stroke-linejoin:miter;stroke-miterlimit:10;stroke-dasharray:2.98883, 2.98883;stroke-dashoffset:0;stroke-opacity:1"
       transform="matrix(1.3333333,0,0,-1.3333333,149.66933,81.637333)" />
    <path
       id="path31"
       d="m -51.02411,0 18.1406,13.6062"
       style="fill:none;stroke:#808080;stroke-width:0.3985;stroke-linecap:butt;stroke-linejoin:miter;stroke-miterlimit:10;stroke-dasharray:2.98883, 2.98883;stroke-dashoffset:0;stroke-opacity:1"
       transform="matrix(1.3333333,0,0,-1.3333333,149.66933,81.637333)" />
    <path
       id="path32"
       d="m -34.01608,0 18.14062,13.6062"
       style="fill:none;stroke:#808080;stroke-width:0.3985;stroke-linecap:butt;stroke-linejoin:miter;stroke-miterlimit:10;stroke-dasharray:2.98883, 2.98883;stroke-dashoffset:0;stroke-opacity:1"
       transform="matrix(1.3333333,0,0,-1.3333333,149.66933,81.637333)" />
    <path
       id="path33"
       d="M -17.00801,0 1.13252,13.6062"
       style="fill:none;stroke:#808080;stroke-width:0.3985;stroke-linecap:butt;stroke-linejoin:miter;stroke-miterlimit:10;stroke-dasharray:2.98883, 2.98883;stroke-dashoffset:0;stroke-opacity:1"
       transform="matrix(1.3333333,0,0,-1.3333333,149.66933,81.637333)" />
    <path
       id="path34"
       d="M 0,0 18.14058,13.6062"
       style="fill:none;stroke:#808080;stroke-width:0.3985;stroke-linecap:butt;stroke-linejoin:miter;stroke-miterlimit:10;stroke-dasharray:2.98883, 2.98883;stroke-dashoffset:0;stroke-opacity:1"
       transform="matrix(1.3333333,0,0,-1.3333333,149.66933,81.637333)" />
    <path
       id="path35"
       d="M 17.00801,0 35.1486,13.6062"
       style="fill:none;stroke:#808080;stroke-width:0.3985;stroke-linecap:butt;stroke-linejoin:miter;stroke-miterlimit:10;stroke-dasharray:2.98883, 2.98883;stroke-dashoffset:0;stroke-opacity:1"
       transform="matrix(1.3333333,0,0,-1.3333333,149.66933,81.637333)" />
    <path
       id="path36"
       d="M 34.01608,0 52.15666,13.6062"
       style="fill:none;stroke:#808080;stroke-width:0.3985;stroke-linecap:butt;stroke-linejoin:miter;stroke-miterlimit:10;stroke-dasharray:2.98883, 2.98883;stroke-dashoffset:0;stroke-opacity:1"
       transform="matrix(1.3333333,0,0,-1.3333333,149.66933,81.637333)" />
    <path
       id="path37"
       d="M 51.02411,0 69.16469,13.6062"
       style="fill:none;stroke:#808080;stroke-width:0.3985;stroke-linecap:butt;stroke-linejoin:miter;stroke-miterlimit:10;stroke-dasharray:2.98883, 2.98883;stroke-dashoffset:0;stroke-opacity:1"
       transform="matrix(1.3333333,0,0,-1.3333333,149.66933,81.637333)" />
    <path
       id="path38"
       d="M 68.03217,0 86.17274,13.6062"
       style="fill:none;stroke:#808080;stroke-width:0.3985;stroke-linecap:butt;stroke-linejoin:miter;stroke-miterlimit:10;stroke-dasharray:2.98883, 2.98883;stroke-dashoffset:0;stroke-opacity:1"
       transform="matrix(1.3333333,0,0,-1.3333333,149.66933,81.637333)" />
    <path
       id="path39"
       d="m 85.04019,0 18.14058,13.6062"
       style="fill:none;stroke:#808080;stroke-width:0.3985;stroke-linecap:butt;stroke-linejoin:miter;stroke-miterlimit:10;stroke-dasharray:2.98883, 2.98883;stroke-dashoffset:0;stroke-opacity:1"
       transform="matrix(1.3333333,0,0,-1.3333333,149.66933,81.637333)" />
    <path
       id="path40"
       d="M 112.93362,-93.88417 V 8.16403 H -91.16284"
       style="fill:none;stroke:#808080;stroke-width:0.3985;stroke-linecap:butt;stroke-linejoin:miter;stroke-miterlimit:10;stroke-dasharray:2.98883, 2.98883;stroke-dashoffset:0;stroke-opacity:1"
       transform="matrix(1.3333333,0,0,-1.3333333,149.66933,81.637333)" />
    <path
       id="path41"
       d="m 30.61424,-1.70088 c -132.66249,-134.36345 139.46617,-134.36345 6.80364,0"
       style="fill:none;stroke:#808080;stroke-width:0.3985;stroke-linecap:butt;stroke-linejoin:miter;stroke-miterlimit:10;stroke-dasharray:none;stroke-opacity:1"
       transform="matrix(1.3333333,0,0,-1.3333333,149.66933,81.637333)" />
    <path
       id="path42"
       d="m -71.43396,-1.70088 c -132.66254,-134.36345 139.46613,-134.36345 6.80363,0"
       style="fill:none;stroke:#808080;stroke-width:0.3985;stroke-linecap:butt;stroke-linejoin:miter;stroke-miterlimit:10;stroke-dasharray:none;stroke-opacity:1"
       transform="matrix(1.3333333,0,0,-1.3333333,149.66933,81.637333)" />
    <path
       id="path43"
       d="m -71.43396,-1.70088 c -98.64645,-100.34737 105.45004,-100.34737 6.80363,0"
       style="fill:none;stroke:#808080;stroke-width:0.3985;stroke-linecap:butt;stroke-linejoin:miter;stroke-miterlimit:10;stroke-dasharray:none;stroke-opacity:1"
       transform="matrix(1.3333333,0,0,-1.3333333,149.66933,81.637333)" />
    <path
       id="path44"
       d="m -71.43396,-1.70088 c -64.63037,-66.33129 71.43396,-66.33129 6.80363,0"
       style="fill:none;stroke:#808080;stroke-width:0.3985;stroke-linecap:butt;stroke-linejoin:miter;stroke-miterlimit:10;stroke-dasharray:none;stroke-opacity:1"
       transform="matrix(1.3333333,0,0,-1.3333333,149.66933,81.637333)" />
    <path
       id="path45"
       d="m 64.63033,-1.70088 c -132.6625,-134.36345 139.46617,-134.36345 6.80363,0"
       style="fill:none;stroke:#808080;stroke-width:0.3985;stroke-linecap:butt;stroke-linejoin:miter;stroke-miterlimit:10;stroke-dasharray:none;stroke-opacity:1"
       transform="matrix(1.3333333,0,0,-1.3333333,149.66933,81.637333)" />
    <path
       id="path46"
       d="m -67.80304,-34.41293 c 13.03614,-22.57927 13.03614,-44.65917 0,-67.23845"
       style="fill:none;stroke:#000000;stroke-width:0.3985;stroke-linecap:butt;stroke-linejoin:miter;stroke-miterlimit:10;stroke-dasharray:none;stroke-opacity:1"
       transform="matrix(1.3333333,0,0,-1.3333333,149.66933,81.637333)" />
    <path
       id="path47"
       d="M -1.19551,1.59401 C -1.09587,0.99626 0,0.09961 0.29886,0 0,-0.09961 -1.09587,-0.99626 -1.19551,-1.59401"
       style="fill:none;stroke:#000000;stroke-width:0.31879;stroke-linecap:round;stroke-linejoin:round;stroke-miterlimit:10;stroke-dasharray:none;stroke-opacity:1"
       transform="matrix(-0.66664,-1.15468,-1.15468,0.66664,59.265307,127.52127)" />
    <path
       id="path48"
       d="M -1.19551,1.59401 C -1.09587,0.99626 0,0.09961 0.29886,0 0,-0.09961 -1.09587,-0.99626 -1.19551,-1.59401"
       style="fill:none;stroke:#000000;stroke-width:0.31879;stroke-linecap:round;stroke-linejoin:round;stroke-miterlimit:10;stroke-dasharray:none;stroke-opacity:1"
       transform="matrix(-0.66664,1.15468,1.15468,0.66664,59.265307,217.17249)" />
    <path
       id="path49"
       d="M -60.77075,6.80309 H -7.26137"
       style="fill:none;stroke:#000000;stroke-width:0.3985;stroke-linecap:butt;stroke-linejoin:miter;stroke-miterlimit:10;stroke-dasharray:none;stroke-opacity:1"
       transform="matrix(1.3333333,0,0,-1.3333333,149.66933,81.637333)" />
    <path
       id="path50"
       d="M -1.19551,1.59401 C -1.09587,0.99626 0,0.09961 0.29886,0 0,-0.09961 -1.09587,-0.99626 -1.19551,-1.59401"
       style="fill:none;stroke:#000000;stroke-width:0.31879;stroke-linecap:round;stroke-linejoin:round;stroke-miterlimit:10;stroke-dasharray:none;stroke-opacity:1"
       transform="matrix(-1.3333333,0,0,1.3333333,68.641667,72.566547)" />
    <path
       id="path51"
       d="M -1.19551,1.59401 C -1.09587,0.99626 0,0.09961 0.29886,0 0,-0.09961 -1.09587,-0.99626 -1.19551,-1.59401"
       style="fill:none;stroke:#000000;stroke-width:0.31879;stroke-linecap:round;stroke-linejoin:round;stroke-miterlimit:10;stroke-dasharray:none;stroke-opacity:1"
       transform="matrix(1.3333333,0,0,-1.3333333,139.98751,72.566547)" />
    <path
       id="path52"
       d="m -3.4018,-1.70088 c -132.66253,-134.36345 139.46613,-134.36345 6.8036,0"
       style="fill:#bfbfbf;fill-opacity:1;fill-rule:nonzero;stroke:none"
       transform="matrix(1.3333333,0,0,-1.3333333,149.66933,81.637333)" />
    <path
       id="path53"
       d="M -5.10219,23.81113 -3.4018,0 h 6.8036 l 1.70039,23.81113"
       style="fill:#ffffff;fill-opacity:1;fill-rule:nonzero;stroke:#0000ff;stroke-width:0.3985;stroke-linecap:butt;stroke-linejoin:miter;stroke-miterlimit:10;stroke-dasharray:none;stroke-opacity:1"
       transform="matrix(1.3333333,0,0,-1.3333333,149.66933,81.637333)" />
    <path
       id="path54"
       d="M 3.4018,0 C 3.4018,0.93936 1.87877,1.70088 0,1.70088 -1.87877,1.70088 -3.4018,0.93936 -3.4018,0 c 0,-0.93936 1.52303,-1.70088 3.4018,-1.70088 1.87877,0 3.4018,0.76152 3.4018,1.70088 z"
       style="fill:#0000ff;fill-opacity:1;fill-rule:nonzero;stroke:#0000ff;stroke-width:0.3985;stroke-linecap:butt;stroke-linejoin:miter;stroke-miterlimit:10;stroke-dasharray:none;stroke-opacity:1"
       transform="matrix(1.3333333,0,0,-1.3333333,149.66933,81.637333)" />
    <path
       id="path55"
       d="M -73.13435,23.81113 -71.43396,0 h 6.80363 l 1.7004,23.81113"
       style="fill:#ffffff;fill-opacity:1;fill-rule:nonzero;stroke:#0000ff;stroke-width:0.3985;stroke-linecap:butt;stroke-linejoin:miter;stroke-miterlimit:10;stroke-dasharray:2.98883, 2.98883;stroke-dashoffset:0;stroke-opacity:1"
       transform="matrix(1.3333333,0,0,-1.3333333,149.66933,81.637333)" />
    <path
       id="path56"
       d="m -64.63036,0 c 0,0.93936 -1.52302,1.70088 -3.40181,1.70088 -1.87876,0 -3.40179,-0.76152 -3.40179,-1.70088 0,-0.93936 1.52303,-1.70088 3.40179,-1.70088 1.87879,0 3.40181,0.76152 3.40181,1.70088 z"
       style="fill:#ffffff;fill-opacity:1;fill-rule:nonzero;stroke:#0000ff;stroke-width:0.3985;stroke-linecap:butt;stroke-linejoin:miter;stroke-miterlimit:10;stroke-dasharray:none;stroke-opacity:1"
       transform="matrix(1.3333333,0,0,-1.3333333,149.66933,81.637333)" />
    <path
       id="path57"
       d="M 28.91385,23.81113 30.61424,0 h 6.80364 l 1.70039,23.81113"
       style="fill:#ffffff;fill-opacity:1;fill-rule:nonzero;stroke:#0000ff;stroke-width:0.3985;stroke-linecap:butt;stroke-linejoin:miter;stroke-miterlimit:10;stroke-dasharray:2.98883, 2.98883;stroke-dashoffset:0;stroke-opacity:1"
       transform="matrix(1.3333333,0,0,-1.3333333,149.66933,81.637333)" />
    <path
       id="path58"
       d="m 37.41788,0 c 0,0.93936 -1.52303,1.70088 -3.4018,1.70088 -1.87878,0 -3.40181,-0.76152 -3.40181,-1.70088 0,-0.93936 1.52303,-1.70088 3.40181,-1.70088 1.87877,0 3.4018,0.76152 3.4018,1.70088 z"
       style="fill:#ffffff;fill-opacity:1;fill-rule:nonzero;stroke:#0000ff;stroke-width:0.3985;stroke-linecap:butt;stroke-linejoin:miter;stroke-miterlimit:10;stroke-dasharray:none;stroke-opacity:1"
       transform="matrix(1.3333333,0,0,-1.3333333,149.66933,81.637333)" />
    <path
       id="path59"
       d="M 62.92993,23.81113 64.63033,0 h 6.80363 l 1.70039,23.81113"
       style="fill:#ffffff;fill-opacity:1;fill-rule:nonzero;stroke:#0000ff;stroke-width:0.3985;stroke-linecap:butt;stroke-linejoin:miter;stroke-miterlimit:10;stroke-dasharray:2.98883, 2.98883;stroke-dashoffset:0;stroke-opacity:1"
       transform="matrix(1.3333333,0,0,-1.3333333,149.66933,81.637333)" />
    <path
       id="path60"
       d="m 71.43396,0 c 0,0.93936 -1.52303,1.70088 -3.40179,1.70088 -1.87879,0 -3.40181,-0.76152 -3.40181,-1.70088 0,-0.93936 1.52302,-1.70088 3.40181,-1.70088 1.87876,0 3.40179,0.76152 3.40179,1.70088 z"
       style="fill:#ffffff;fill-opacity:1;fill-rule:nonzero;stroke:#0000ff;stroke-width:0.3985;stroke-linecap:butt;stroke-linejoin:miter;stroke-miterlimit:10;stroke-dasharray:none;stroke-opacity:1"
       transform="matrix(1.3333333,0,0,-1.3333333,149.66933,81.637333)" />
    <path
       id="path61"
       d="m 3.40176,-69.73305 c 0,0.93938 -0.7615,1.70088 -1.70088,1.70088 C 0.7615,-68.03217 0,-68.79367 0,-69.73305 c 0,-0.93937 0.7615,-1.70088 1.70088,-1.70088 0.93938,0 1.70088,0.76151 1.70088,1.70088 z"
       style="fill:#ff0000;fill-opacity:1;fill-rule:nonzero;stroke:#000000;stroke-width:0.3985;stroke-linecap:butt;stroke-linejoin:miter;stroke-miterlimit:10;stroke-dasharray:none;stroke-opacity:1"
       transform="matrix(1.3333333,0,0,-1.3333333,149.66933,81.637333)" />
    <path
       id="path62"
       d="m 0.68045,-69.73305 c 0,0.93938 -0.7615,1.70088 -1.70088,1.70088 -0.93938,0 -1.70088,-0.7615 -1.70088,-1.70088 0,-0.93937 0.7615,-1.70088 1.70088,-1.70088 0.93938,0 1.70088,0.76151 1.70088,1.70088 z"
       style="fill:#ffffff;fill-opacity:1;fill-rule:nonzero;stroke:#000000;stroke-width:0.3985;stroke-linecap:butt;stroke-linejoin:miter;stroke-miterlimit:10;stroke-dasharray:none;stroke-opacity:1"
       transform="matrix(1.3333333,0,0,-1.3333333,149.66933,81.637333)" />
    <path
       id="path63"
       d="m 2.38133,-67.35167 c 0,0.93937 -0.7615,1.70088 -1.70088,1.70088 -0.93936,0 -1.70088,-0.76151 -1.70088,-1.70088 0,-0.93938 0.76152,-1.7009 1.70088,-1.7009 0.93938,0 1.70088,0.76152 1.70088,1.7009 z"
       style="fill:#ffffff;fill-opacity:1;fill-rule:nonzero;stroke:#000000;stroke-width:0.3985;stroke-linecap:butt;stroke-linejoin:miter;stroke-miterlimit:10;stroke-dasharray:none;stroke-opacity:1"
       transform="matrix(1.3333333,0,0,-1.3333333,149.66933,81.637333)" />
    <path
       id="path64"
       d="m 0.68045,-67.69217 c 0,0.93938 -0.7615,1.7009 -1.70088,1.7009 -0.93938,0 -1.70088,-0.76152 -1.70088,-1.7009 0,-0.93938 0.7615,-1.70088 1.70088,-1.70088 0.93938,0 1.70088,0.7615 1.70088,1.70088 z"
       style="fill:#ff0000;fill-opacity:1;fill-rule:nonzero;stroke:#000000;stroke-width:0.3985;stroke-linecap:butt;stroke-linejoin:miter;stroke-miterlimit:10;stroke-dasharray:none;stroke-opacity:1"
       transform="matrix(1.3333333,0,0,-1.3333333,149.66933,81.637333)" />
    <path
       id="path65"
       d="m 1.70088,-68.03217 c 0,0.93938 -0.76152,1.7009 -1.70088,1.7009 -0.93936,0 -1.70088,-0.76152 -1.70088,-1.7009 0,-0.93937 0.76152,-1.70088 1.70088,-1.70088 0.93936,0 1.70088,0.76151 1.70088,1.70088 z"
       style="fill:#ff0000;fill-opacity:1;fill-rule:nonzero;stroke:#000000;stroke-width:0.3985;stroke-linecap:butt;stroke-linejoin:miter;stroke-miterlimit:10;stroke-dasharray:none;stroke-opacity:1"
       transform="matrix(1.3333333,0,0,-1.3333333,149.66933,81.637333)" />
    <path
       id="path66"
       d="m 9.62103,-58.41112 c -2.6568,2.6568 -9.11793,0.5031 -14.43153,-4.81053 -5.31363,-5.31361 -7.46735,-11.77475 -4.81053,-14.43155 2.6568,-2.65681 9.11793,-0.5031 14.43153,4.81053 5.31363,5.31362 7.46735,11.77475 4.81053,14.43155 z"
       style="fill:none;stroke:#808080;stroke-width:0.19925;stroke-linecap:butt;stroke-linejoin:miter;stroke-miterlimit:10;stroke-dasharray:none;stroke-opacity:1"
       transform="matrix(1.3333333,0,0,-1.3333333,149.66933,81.637333)" />
    <path
       id="path67"
       d="m 9.62103,-77.6532 c 2.65682,2.6568 0.5031,9.11794 -4.81053,14.43155 -5.3136,5.31363 -11.77473,7.46733 -14.43153,4.81053 -2.65682,-2.6568 -0.5031,-9.11793 4.81053,-14.43155 5.3136,-5.31363 11.77473,-7.46734 14.43153,-4.81053 z"
       style="fill:none;stroke:#808080;stroke-width:0.19925;stroke-linecap:butt;stroke-linejoin:miter;stroke-miterlimit:10;stroke-dasharray:none;stroke-opacity:1"
       transform="matrix(1.3333333,0,0,-1.3333333,149.66933,81.637333)" />
    <path
       id="path68"
       d="m 17.00801,-68.03217 c 0,15.02948 -7.61464,27.21297 -17.00801,27.21297 -9.39337,0 -17.00801,-12.18349 -17.00801,-27.21297 0,-15.02948 7.61464,-27.21295 17.00801,-27.21295 9.39337,0 17.00801,12.18347 17.00801,27.21295 z"
       style="fill:none;stroke:#808080;stroke-width:0.19925;stroke-linecap:butt;stroke-linejoin:miter;stroke-miterlimit:10;stroke-dasharray:none;stroke-opacity:1"
       transform="matrix(1.3333333,0,0,-1.3333333,149.66933,81.637333)" />
    <path
       id="path69"
       d="m 8.50389,-53.30275 c -13.01591,7.51465 -27.37442,7.01183 -32.07104,-1.12311 -4.69661,-8.13493 2.04733,-20.82107 15.06326,-28.33571 13.01591,-7.51464 27.37442,-7.01182 32.07104,1.12311 4.69661,8.13492 -2.04733,20.82106 -15.06326,28.33571 z"
       style="fill:none;stroke:#808080;stroke-width:0.19925;stroke-linecap:butt;stroke-linejoin:miter;stroke-miterlimit:10;stroke-dasharray:none;stroke-opacity:1"
       transform="matrix(1.3333333,0,0,-1.3333333,149.66933,81.637333)" />
    <path
       id="path70"
       d="m 8.50389,-82.76157 c 13.01593,7.51464 19.75987,20.20078 15.06326,28.33571 -4.69662,8.13494 -19.05513,8.63776 -32.07104,1.12311 -13.01593,-7.51465 -19.75987,-20.20079 -15.06326,-28.33571 4.69662,-8.13493 19.05513,-8.63775 32.07104,-1.12311 z"
       style="fill:none;stroke:#808080;stroke-width:0.19925;stroke-linecap:butt;stroke-linejoin:miter;stroke-miterlimit:10;stroke-dasharray:none;stroke-opacity:1"
       transform="matrix(1.3333333,0,0,-1.3333333,149.66933,81.637333)" />
    <path
       id="path71"
       d="m -3.1096,-72.84265 c 0,0.93936 -0.76151,1.70088 -1.70089,1.70088 -0.93937,0 -1.70089,-0.76152 -1.70089,-1.70088 0,-0.93938 0.76152,-1.7009 1.70089,-1.7009 0.93938,0 1.70089,0.76152 1.70089,1.7009 z"
       style="fill:#0000ff;fill-opacity:1;fill-rule:nonzero;stroke:none"
       transform="matrix(1.3333333,0,0,-1.3333333,149.66933,81.637333)" />
    <path
       id="path72"
       d="m 5.10269,-57.82721 c 0,0.93938 -0.76152,1.7009 -1.70089,1.7009 -0.93938,0 -1.70089,-0.76152 -1.70089,-1.7009 0,-0.93938 0.76151,-1.70088 1.70089,-1.70088 0.93937,0 1.70089,0.7615 1.70089,1.70088 z"
       style="fill:#bfbfbf;fill-opacity:1;fill-rule:nonzero;stroke:#0000ff;stroke-width:0.3985;stroke-linecap:butt;stroke-linejoin:miter;stroke-miterlimit:10;stroke-dasharray:none;stroke-opacity:1"
       transform="matrix(1.3333333,0,0,-1.3333333,149.66933,81.637333)" />
    <path
       id="path73"
       d="m -10.35907,-87.22069 c 0,0.93938 -0.76152,1.70089 -1.7009,1.70089 -0.93937,0 -1.70088,-0.76151 -1.70088,-1.70089 0,-0.93937 0.76151,-1.7009 1.70088,-1.7009 0.93938,0 1.7009,0.76153 1.7009,1.7009 z"
       style="fill:#0000ff;fill-opacity:1;fill-rule:nonzero;stroke:none"
       transform="matrix(1.3333333,0,0,-1.3333333,149.66933,81.637333)" />
    <path
       id="path74"
       d="m 8.33893,-42.97789 c 0,0.93938 -0.76151,1.70089 -1.70088,1.70089 -0.93938,0 -1.7009,-0.76151 -1.7009,-1.70089 0,-0.93938 0.76152,-1.70088 1.7009,-1.70088 0.93937,0 1.70088,0.7615 1.70088,1.70088 z"
       style="fill:#0000ff;fill-opacity:1;fill-rule:nonzero;stroke:none"
       transform="matrix(1.3333333,0,0,-1.3333333,149.66933,81.637333)" />
    <path
       id="path75"
       d="m -22.8452,-71.97012 c 0,0.93937 -0.76152,1.70088 -1.7009,1.70088 -0.93937,0 -1.70088,-0.76151 -1.70088,-1.70088 0,-0.93938 0.76151,-1.7009 1.70088,-1.7009 0.93938,0 1.7009,0.76152 1.7009,1.7009 z"
       style="fill:#0000ff;fill-opacity:1;fill-rule:nonzero;stroke:none"
       transform="matrix(1.3333333,0,0,-1.3333333,149.66933,81.637333)" />
    <path
       id="path76"
       d="m 26.75461,-60.35133 c 0,0.93937 -0.76152,1.70089 -1.70088,1.70089 -0.93938,0 -1.7009,-0.76152 -1.7009,-1.70089 0,-0.93938 0.76152,-1.70089 1.7009,-1.70089 0.93936,0 1.70088,0.76151 1.70088,1.70089 z"
       style="fill:#0000ff;fill-opacity:1;fill-rule:nonzero;stroke:none"
       transform="matrix(1.3333333,0,0,-1.3333333,149.66933,81.637333)" />
    <path
       id="path77"
       d="m -19.19374,-51.33397 c 0,0.93938 -0.76151,1.70088 -1.70088,1.70088 -0.93938,0 -1.7009,-0.7615 -1.7009,-1.70088 0,-0.93938 0.76152,-1.7009 1.7009,-1.7009 0.93937,0 1.70088,0.76152 1.70088,1.7009 z"
       style="fill:#0000ff;fill-opacity:1;fill-rule:nonzero;stroke:none"
       transform="matrix(1.3333333,0,0,-1.3333333,149.66933,81.637333)" />
    <path
       id="path78"
       d="m 6.24614,-87.61362 c 0,0.93938 -0.76152,1.7009 -1.7009,1.7009 -0.93937,0 -1.70088,-0.76152 -1.70088,-1.7009 0,-0.93938 0.76151,-1.70088 1.70088,-1.70088 0.93938,0 1.7009,0.7615 1.7009,1.70088 z"
       style="fill:#0000ff;fill-opacity:1;fill-rule:nonzero;stroke:none"
       transform="matrix(1.3333333,0,0,-1.3333333,149.66933,81.637333)" />
    <path
       id="path79"
       d="M 21.53802,-59.95508 7.3781,-58.30347"
       style="fill:none;stroke:#000000;stroke-width:0.3985;stroke-linecap:butt;stroke-linejoin:miter;stroke-miterlimit:10;stroke-dasharray:none;stroke-opacity:1"
       transform="matrix(1.3333333,0,0,-1.3333333,149.66933,81.637333)" />
    <path
       id="path80"
       d="M -1.19551,1.59401 C -1.09587,0.99626 0,0.09961 0.29886,0 0,-0.09961 -1.09587,-0.99626 -1.19551,-1.59401"
       style="fill:none;stroke:#000000;stroke-width:0.31879;stroke-linecap:round;stroke-linejoin:round;stroke-miterlimit:10;stroke-dasharray:none;stroke-opacity:1"
       transform="matrix(-1.3243067,-0.15444,-0.15444,1.3243067,159.5068,159.37531)" />
    <path
       id="path81"
       d="M 81.63837,34.01608 54.42592,54.42592"
       style="fill:none;stroke:#000000;stroke-width:0.49814;stroke-linecap:butt;stroke-linejoin:miter;stroke-miterlimit:10;stroke-dasharray:none;stroke-opacity:1"
       transform="matrix(1.3333333,0,0,-1.3333333,149.66933,81.637333)" />
    <path
       id="path82"
       d="M 81.63837,34.01608 C 76.41257,46.25026 67.63394,52.83447 54.42592,54.42592"
       style="fill:none;stroke:#000000;stroke-width:0.49814;stroke-linecap:butt;stroke-linejoin:miter;stroke-miterlimit:10;stroke-dasharray:none;stroke-opacity:1"
       transform="matrix(1.3333333,0,0,-1.3333333,149.66933,81.637333)" />
    <path
       id="path83"
       d="m 0,-2.72131 3.4018,-14.2867 -23.81164,-23.81116 22.67839,-16.20929 m 1.13389,-1.94377 -6.4e-4,-22.66614 30.61428,6.8031 L 44.221,-91.8433"
       style="fill:none;stroke:#0000ff;stroke-width:0.3985;stroke-linecap:butt;stroke-linejoin:miter;stroke-miterlimit:10;stroke-dasharray:0.3985, 1.99255;stroke-dashoffset:0;stroke-opacity:1"
       transform="matrix(1.3333333,0,0,-1.3333333,149.66933,81.637333)" />
    <path
       id="path84"
       d="m 16.06538,-55.59361 v 0 c 0.32729,0.62849 -0.51466,1.46643 -0.18736,2.09495 0.23695,0.45504 0.93192,0.59168 1.66019,0.73336 0.72825,0.14169 1.42323,0.2783 1.6602,0.73336 0.23695,0.45502 -0.04956,1.10277 -0.35103,1.78069 -0.30148,0.67789 -0.588,1.32562 -0.35103,1.78068 0.23694,0.45502 0.9319,0.59168 1.66019,0.73336 0.72826,0.14167 1.42322,0.2783 1.66019,0.73335 0.23695,0.45503 -0.04956,1.10276 -0.35103,1.78068 -0.30147,0.67789 -0.588,1.32564 -0.35103,1.78069 0.23695,0.45503 0.93192,0.59168 1.6602,0.73335 0.72824,0.1417 1.42322,0.27831 1.66019,0.73337 0.23695,0.45502 -0.04956,1.10277 -0.35103,1.78069 -0.30147,0.67788 -0.588,1.32562 -0.35103,1.78068 0.23696,0.45502 0.93192,0.59168 1.66019,0.73335 0.72825,0.14168 1.42323,0.27831 1.6602,0.73335 0.23695,0.45504 -0.04956,1.10278 -0.35103,1.7807 -0.30146,0.67788 -0.588,1.32563 -0.35103,1.78068 0.23696,0.45503 0.93192,0.59167 1.66019,0.73337 0.72826,0.14167 1.42323,0.27829 1.6602,0.73335 0.23696,0.45503 -0.04956,1.10277 -0.35102,1.78068 -0.30149,0.67789 -0.588,1.32562 -0.35105,1.78069 0.23695,0.45502 0.93192,0.59167 1.6602,0.73335 0.72826,0.14168 1.42322,0.27831 1.66019,0.73337 0.23696,0.45501 -0.04956,1.10275 -0.35103,1.78067 -0.30147,0.67789 -0.588,1.32564 -0.35103,1.78069 0.23696,0.45503 0.93192,0.59167 1.6602,0.73336 0.72825,0.14168 1.42322,0.27831 1.66019,0.73336 0.23695,0.45503 -0.04956,1.10276 -0.35103,1.78068 -0.30147,0.67789 -0.58799,1.32562 -0.35103,1.78069 0.23696,0.45501 0.93192,0.59167 1.66019,0.73335 0.72826,0.14169 1.42323,0.27831 1.6602,0.73337 0.23696,0.45501 -0.04956,1.10277 -0.35103,1.78068 -0.30147,0.67789 -0.58799,1.32563 -0.35102,1.78067 0.23695,0.45504 0.9319,0.59169 1.66018,0.73337 0.72826,0.14168 1.42324,0.27831 1.6602,0.73335 0.23694,0.45504 -0.04956,1.10277 -0.35104,1.78069 -0.30147,0.67788 -0.58799,1.32562 -0.35103,1.78068 0.23696,0.45504 0.93192,0.59168 1.6602,0.73336 0.72824,0.14169 1.42322,0.2783 1.66019,0.73337 0.23695,0.45501 -0.04956,1.10277 -0.35103,1.78068 -0.30146,0.67789 -0.58799,1.32562 -0.35102,1.78069 0.23695,0.45501 0.93191,0.59167 1.6602,0.73335 0.72824,0.14168 1.42321,0.2783 1.66018,0.73335 0.23696,0.45503 -0.04956,1.10277 -0.35103,1.78067 -0.30146,0.67789 -0.58799,1.32564 -0.35102,1.78069 0.23695,0.45503 0.93191,0.59167 1.66018,0.73336 0.72826,0.14168 1.42324,0.27829 1.66021,0.73336 0.23695,0.45502 -0.04957,1.10277 -0.35103,1.78068 -0.30147,0.67789 -0.588,1.32563 -0.35103,1.78069 0.23695,0.45502 0.9319,0.59167 1.66019,0.73335 0.72825,0.14168 1.42323,0.2783 1.66018,0.73335 0.23696,0.45504 -0.04954,1.10277 -0.35103,1.78069 -0.30146,0.67789 -0.588,1.32564 -0.35102,1.78068 0.23695,0.45504 0.93191,0.59168 1.6602,0.73338 0.72824,0.14167 1.42322,0.2783 1.66018,0.73335 0.23696,0.45503 -0.04956,1.10276 -0.35102,1.78068 -0.30147,0.67789 -0.588,1.32562 -0.35104,1.78069 0.23696,0.45501 0.93192,0.59167 1.66021,0.73335 0.72824,0.14169 1.42322,0.2783 1.66019,0.73337 0.23695,0.45501 -0.04956,1.10276 -0.35103,1.78068 -0.30147,0.67788 -0.588,1.32562 -0.35103,1.78067 0.23696,0.45503 0.93191,0.59168 1.66019,0.73337 0.72825,0.14168 1.42323,0.27831 1.6602,0.73335 0.23695,0.45504 -0.04956,1.10277 -0.35103,1.78069 -0.30148,0.67789 -0.588,1.32562 -0.35103,1.78068 0.23695,0.45504 0.9319,0.59168 1.66019,0.73336 0.72825,0.14169 1.42322,0.2783 1.66018,0.73336 0.23696,0.45502 -0.04954,1.10277 -0.35102,1.78069 -0.30147,0.67789 -0.588,1.32562 -0.35103,1.78069 0.23695,0.45501 0.93191,0.59167 1.6602,0.73335 0.72824,0.14167 1.42321,0.2783 1.66019,0.73335 0.32853,0.62952 -0.51342,1.46745 -0.18612,2.09598 v 10e-6 l 2.45344,4.71119"
       style="fill:none;stroke:#ff0000;stroke-width:0.3985;stroke-linecap:butt;stroke-linejoin:miter;stroke-miterlimit:10;stroke-dasharray:none;stroke-opacity:1"
       transform="matrix(1.3333333,0,0,-1.3333333,149.66933,81.637333)" />
    <path
       id="path85"
       d="M -1.19551,1.59401 C -1.09587,0.99626 0,0.09961 0.29886,0 0,-0.09961 -1.09587,-0.99626 -1.19551,-1.59401"
       style="fill:none;stroke:#ff0000;stroke-width:0.31879;stroke-linecap:round;stroke-linejoin:round;stroke-miterlimit:10;stroke-dasharray:none;stroke-opacity:1"
       transform="matrix(0.6158,-1.18252,-1.18252,-0.6158,237.63907,27.96712)" />
    <path
       id="path86"
       d="m 6.92293,-13.67654 v 0 c 0.5144,0.48734 -0.00812,1.55409 0.5063,2.04145 0.37244,0.35285 1.07394,0.2553 1.80859,0.15165 0.73462,-0.10366 1.43615,-0.20122 1.8086,0.15164 0.37243,0.35283 0.31289,1.05859 0.24908,1.79776 -0.06381,0.73915 -0.12337,1.44493 0.24909,1.79777 0.37243,0.35285 1.07394,0.2553 1.80859,0.15164 0.73462,-0.10365 1.43614,-0.20121 1.80859,0.15165 0.37244,0.35284 0.31292,1.05859 0.24909,1.79777 -0.06381,0.73915 -0.12337,1.44492 0.24908,1.79776 0.37244,0.35285 1.07395,0.2553 1.8086,0.15165 0.73462,-0.10364 1.43616,-0.20122 1.80859,0.15164 0.37244,0.35284 0.31291,1.05859 0.24908,1.79777 -0.06381,0.73915 -0.12335,1.44492 0.24909,1.79775 0.37244,0.35284 1.07394,0.25529 1.8086,0.15164 0.73461,-0.10364 1.43615,-0.2012 1.80859,0.15164 0.37243,0.35284 0.31291,1.05859 0.24908,1.79777 -0.06381,0.73916 -0.12335,1.44492 0.24909,1.79778 0.37243,0.35283 1.07394,0.25528 1.80859,0.15163 0.73463,-0.10364 1.43615,-0.20121 1.80859,0.15164 0.37244,0.35284 0.31292,1.05859 0.24909,1.79777 -0.06381,0.73915 -0.12335,1.44492 0.24908,1.79778 0.37244,0.35283 1.07395,0.25528 1.80861,0.15164 0.73462,-0.10365 1.43614,-0.20122 1.80859,0.15163 0.37243,0.35284 0.3129,1.05859 0.24909,1.79777 -0.06383,0.73915 -0.12337,1.44492 0.24908,1.79778 0.37242,0.35283 1.07395,0.25527 1.8086,0.15164 0.73462,-0.10365 1.43614,-0.20122 1.80859,0.15164 0.37243,0.35283 0.3129,1.05858 0.24909,1.79776 -0.06383,0.73915 -0.12337,1.44492 0.24908,1.79778 0.37242,0.35284 1.07394,0.25528 1.80859,0.15164 0.73462,-0.10365 1.43615,-0.20122 1.8086,0.15164 0.37243,0.35283 0.31289,1.05858 0.24908,1.79776 -0.06383,0.73915 -0.12337,1.44493 0.24909,1.79778 0.37243,0.35284 1.07394,0.25529 1.80859,0.15163 0.73462,-0.10365 1.43614,-0.20121 1.80859,0.15165 0.37244,0.35283 0.3129,1.05859 0.24909,1.79777 -0.06381,0.73916 -0.12337,1.44492 0.24908,1.79776 0.37244,0.35285 1.07395,0.2553 1.8086,0.15165 0.73462,-0.10364 1.43614,-0.20122 1.80859,0.15164 0.37244,0.35284 0.3129,1.05859 0.24908,1.79777 -0.06381,0.73916 -0.12336,1.44492 0.24909,1.79776 0.37244,0.35285 1.07394,0.2553 1.80859,0.15165 0.73462,-0.10364 1.43615,-0.20121 1.8086,0.15164 0.37243,0.35284 0.3129,1.05859 0.24908,1.79777 -0.06381,0.73915 -0.12337,1.44492 0.24909,1.79778 0.37243,0.35283 1.07394,0.25528 1.80859,0.15162 0.73462,-0.10363 1.43614,-0.2012 1.80859,0.15164 0.37244,0.35285 0.31292,1.0586 0.24909,1.79778 -0.06381,0.73915 -0.12337,1.44492 0.24908,1.79778 0.37244,0.35283 1.07395,0.25528 1.8086,0.15164 0.73462,-0.10365 1.43615,-0.20122 1.80859,0.15163 0.51501,0.48807 -0.0075,1.55482 0.50691,2.04217 v 2e-5 l 3.20464,3.0363"
       style="fill:none;stroke:#ff0000;stroke-width:0.3985;stroke-linecap:butt;stroke-linejoin:miter;stroke-miterlimit:10;stroke-dasharray:none;stroke-opacity:1"
       transform="matrix(1.3333333,0,0,-1.3333333,149.66933,81.637333)" />
    <path
       id="path87"
       d="M -1.19551,1.59401 C -1.09587,0.99626 0,0.09961 0.29886,0 0,-0.09961 -1.09587,-0.99626 -1.19551,-1.59401"
       style="fill:none;stroke:#ff0000;stroke-width:0.31879;stroke-linecap:round;stroke-linejoin:round;stroke-miterlimit:10;stroke-dasharray:none;stroke-opacity:1"
       transform="matrix(0.96785333,-0.91698667,-0.91698667,-0.96785333,235.19235,27.593973)" />
    <path
       id="path88"
       d="m 35.02924,-71.32918 c 0.19465,0.68137 -0.79821,1.33351 -0.60355,2.01489 0.14093,0.49332 0.79441,0.7665 1.47952,1.05132 0.68506,0.28479 1.33858,0.55798 1.47953,1.0513 0.14091,0.49332 -0.26963,1.07047 -0.70089,1.67419 -0.43124,0.60372 -0.84181,1.18088 -0.70086,1.6742 0.14091,0.49332 0.79438,0.76649 1.47951,1.05131 0.68507,0.28479 1.33859,0.55799 1.47952,1.0513 0.14093,0.49332 -0.26962,1.07047 -0.70087,1.6742 -0.43126,0.60371 -0.84181,1.18087 -0.70088,1.67419 0.14093,0.49332 0.7944,0.7665 1.47952,1.05132 0.68506,0.28479 1.33858,0.55798 1.47952,1.0513 0.14092,0.49331 -0.26962,1.07046 -0.70088,1.67419 -0.43124,0.60372 -0.8418,1.18088 -0.70087,1.6742 0.14094,0.49331 0.79439,0.76649 1.47953,1.05131 0.68506,0.28479 1.33857,0.55799 1.47951,1.0513 0.14093,0.49332 -0.26963,1.07046 -0.70087,1.6742 -0.43125,0.60371 -0.84181,1.18087 -0.70087,1.67419 0.14092,0.49332 0.79439,0.7665 1.47951,1.05132 0.68507,0.28479 1.33858,0.55798 1.47952,1.0513 0.14091,0.49331 -0.26962,1.07046 -0.70087,1.67419 -0.43125,0.6037 -0.84181,1.18088 -0.70088,1.67419 0.19472,0.68174 1.38225,0.711 1.57691,1.39238 l 0.44038,1.54125"
       style="fill:none;stroke:#ff0000;stroke-width:0.3985;stroke-linecap:butt;stroke-linejoin:miter;stroke-miterlimit:10;stroke-dasharray:none;stroke-opacity:1"
       transform="matrix(1.3333333,0,0,-1.3333333,149.66933,81.637333)" />
    <path
       id="path89"
       d="m 44.22949,-39.12556 1.70125,5.95436"
       style="fill:none;stroke:#ff0000;stroke-width:0.3985;stroke-linecap:butt;stroke-linejoin:miter;stroke-miterlimit:10;stroke-dasharray:0.3985, 0.99628;stroke-dashoffset:0;stroke-opacity:1"
       transform="matrix(1.3333333,0,0,-1.3333333,149.66933,81.637333)" />
    <g
       id="g89"
       aria-label="ð‘’&#10;âˆ’"
       transform="matrix(1.3333333,0,0,1.3333333,135.64267,108.148)">
      <path
         id="path90"
         d="m 3.5404609,-3.6910781 c 0,0.9023437 -1.0429687,1.2304687 -1.8046875,1.3359375 0.3515625,-1.40625 0.890625,-1.7109375 1.3125,-1.7109375 0.3632813,0 0.4921875,0.09375 0.4921875,0.375 z m -1.875,1.7109375 c 2.6015625,-0.515625 2.5546875,-1.2773438 2.5546875,-1.6523438 0,-0.2578125 -0.2226562,-0.7382812 -0.9375,-0.7382812 -1.734375,0 -2.44921871,1.6875 -2.44921871,2.953125 0,0.85546873 0.39843751,1.52343748 1.21875001,1.52343748 0.6679687,0 1.2773437,-0.3515625 1.8632812,-1.11328128 -0.046875,-0.1054687 -0.1054687,-0.1523437 -0.2226562,-0.1523437 -0.5742188,0.57421873 -0.796875,0.65624998 -1.2773438,0.65624998 -0.4570312,0 -0.7617187,-0.234375 -0.7617187,-1.13671878 0,-0.058594 0,-0.2578125 0.011719,-0.3398437 z m 0,0"
         style="fill:#000000;fill-opacity:1;fill-rule:nonzero;stroke:none" />
      <path
         id="path91"
         d="M 9.1596016,-5.2818984 V -5.6920547 H 5.4447578 v 0.4101563 z m 0,0"
         style="fill:#000000;fill-opacity:1;fill-rule:nonzero;stroke:none" />
    </g>
    <path
       id="path92"
       d="m -101.86865,-13.70303 h 53.23949 v 13.50378 h -53.23949 z"
       style="fill:#ffffff;fill-opacity:0.4;fill-rule:nonzero;stroke:none"
       transform="matrix(1.3333333,0,0,-1.3333333,149.66933,81.637333)" />
    <g
       id="g92"
       aria-label="Sampleðº"
       transform="matrix(1.3333333,0,0,1.3333333,18.273333,95.408)">
      <path
         id="path93"
         d="M 2.4258594,-4.1849063 C 1.5586719,-4.3958438 1.3594531,-5.08725 1.3594531,-5.4388125 c 0,-0.6796875 0.5625,-1.3007813 1.40625,-1.3007813 1.3828125,0 1.9101563,0.9960938 2.0507813,2.015625 0.011719,0.1289063 0.011719,0.1757813 0.1289062,0.1757813 0.1289063,0 0.1289063,-0.046875 0.1289063,-0.234375 v -2.0039063 c 0,-0.1640625 0,-0.234375 -0.1171875,-0.234375 -0.070312,0 -0.070312,0.011719 -0.140625,0.1289063 l -0.375,0.5859375 c -0.2695313,-0.2695313 -0.7265625,-0.7148438 -1.6875,-0.7148438 -1.1484375,0 -2.03906252,0.8789063 -2.03906252,1.9335938 0,0.6328125 0.33984372,1.078125 0.46875002,1.2304687 0.46875,0.4921875 0.7734375,0.5625 1.59375,0.7617188 0.1640625,0.035156 0.328125,0.070312 0.4921875,0.1054687 0.5859375,0.140625 0.7851562,0.1875 1.0898437,0.5273438 0.058594,0.070312 0.3632813,0.4101562 0.3632813,0.9492187 0,0.70312505 -0.5273438,1.4179688 -1.4296875,1.4179688 -0.421875,0 -1.0898438,-0.0703125 -1.640625,-0.50390625 C 1.0078906,-1.102875 0.97273438,-1.8294375 0.96101563,-2.1692813 c 0,-0.070312 -0.0585938,-0.09375 -0.1171875,-0.09375 -0.12890625,0 -0.12890625,0.070312 -0.12890625,0.2460938 V -0.02475 c 0,0.17578125 0,0.24609375 0.1171875,0.24609375 0.0703125,0 0.0820313,-0.0351563 0.140625,-0.1171875 l 0.37500002,-0.609375 c 0.28125,0.29296875 0.9257812,0.7265625 1.9453125,0.7265625 1.2539062,0 2.0625,-1.0078125 2.0625,-2.06250005 0,-0.796875 -0.46875,-1.7460937 -1.5703125,-2.015625 z m 6.9433594,-0.890625 C 9.310625,-5.227875 9.2520313,-5.2864688 9.1465625,-5.2864688 c -0.140625,0 -0.1640625,0.058594 -0.2109375,0.1875 l -1.6054687,4.1132813 c -0.1054688,0.26953125 -0.28125,0.71484375 -0.9023438,0.73828125 V -0.0013125 C 6.6504688,-0.02475 6.9317188,-0.03646875 7.154375,-0.03646875 c 0.1640625,0 0.6328125,0.0234375 0.8320313,0.03515625 V -0.24740625 C 7.5645313,-0.27084375 7.529375,-0.6106875 7.529375,-0.7044375 c 0,-0.0703125 0,-0.09375 0.3398438,-0.984375 h 2.0625 l 0.2226562,0.5625 c 0.08203,0.19921875 0.210938,0.5390625 0.210938,0.59765625 0,0.28125 -0.363282,0.28125 -0.5273442,0.28125 v 0.24609375 c 0.2695312,-0.01171875 0.8554692,-0.03515625 1.0546872,-0.03515625 0.339844,0 0.726563,0.0234375 0.960938,0.03515625 v -0.24609375 c -0.550781,0 -0.644531,-0.0585938 -0.773438,-0.3984375 z m 0.46875,3.140625 H 7.9746875 l 0.9375,-2.4023437 z m 7.9746092,-2.8945312 v 4.11328125 c 0,0.41015625 -0.04687,0.46875 -0.714844,0.46875 v 0.24609375 c 0.199219,-0.01171875 0.691407,-0.03515625 1.042969,-0.03515625 0.339844,0 0.703125,0.0234375 1.03125,0.03515625 v -0.24609375 c -0.667969,0 -0.714844,-0.0585938 -0.714844,-0.46875 V -4.4075625 c 0,-0.4101563 0.04687,-0.46875 0.714844,-0.46875 v -0.2460938 h -1.207031 c -0.222656,0 -0.257813,0 -0.339844,0.1875 l -1.699219,4.1835938 -1.710937,-4.1953125 c -0.07031,-0.1757813 -0.128906,-0.1757813 -0.339844,-0.1757813 h -1.207031 v 0.2460938 c 0.667969,0 0.714844,0.058594 0.714844,0.46875 v 3.3984375 c 0,0.234375 0,0.76171875 -0.714844,0.76171875 v 0.24609375 c 0.210937,-0.01171875 0.65625,-0.03515625 0.855469,-0.03515625 0.152343,0 0.609375,0.01171875 0.855468,0.03515625 v -0.24609375 c -0.714843,0 -0.714843,-0.52734375 -0.714843,-0.76171875 v -3.7382813 l 0.01172,-0.011719 1.863282,4.58203125 c 0.03516,0.08203125 0.08203,0.17578125 0.1875,0.17578125 0.09375,0 0.152343,-0.09375 0.1875,-0.17578125 z m 5.047852,2.4960937 c 0.996093,0 1.828125,-0.6210937 1.828125,-1.3828125 0,-0.7148437 -0.761719,-1.40625 -1.898438,-1.40625 h -2.707031 v 0.2460938 c 0.667969,0 0.714844,0.058594 0.714844,0.46875 v 3.69140625 c 0,0.41015625 -0.04687,0.46875 -0.714844,0.46875 v 0.24609375 c 0.292969,-0.01171875 0.855469,-0.03515625 1.078125,-0.03515625 0.222656,0 0.773437,0.0234375 1.078125,0.03515625 v -0.24609375 c -0.667969,0 -0.714844,-0.0585938 -0.714844,-0.46875 V -2.3333438 Z m -1.371094,-2.109375 c 0,-0.3984375 0.04687,-0.4335937 0.398437,-0.4335937 h 0.691407 c 1.253906,0 1.253906,0.7617187 1.253906,1.1601562 0,0.3867188 0,1.1601563 -1.253906,1.1601563 h -1.089844 z m 8.416992,2.5078125 h -0.246094 c -0.08203,0.796875 -0.175781,1.68750005 -1.570312,1.68750005 h -0.632813 c -0.351562,0 -0.398437,-0.0351563 -0.398437,-0.43359375 v -3.6914063 c 0,-0.5039062 0.152344,-0.5039062 0.890625,-0.5039062 v -0.2460938 c -0.28125,0.011719 -0.925781,0.035156 -1.21875,0.035156 -0.246094,0 -0.75,-0.023437 -1.101563,-0.035156 v 0.2460938 c 0.667969,0 0.714844,0.058594 0.714844,0.46875 v 3.69140625 c 0,0.41015625 -0.04687,0.46875 -0.714844,0.46875 v 0.24609375 h 4.089844 z M 35.170977,-5.08725 h -4.429688 v 0.2460937 c 0.667969,0 0.714844,0.058594 0.714844,0.46875 v 3.65625005 c 0,0.41015625 -0.04687,0.46875 -0.714844,0.46875 v 0.24609375 h 4.546875 l 0.292969,-1.9335938 H 35.32332 c -0.164062,1.2070313 -0.398437,1.68750005 -1.675781,1.68750005 h -1.078125 c -0.351562,0 -0.398437,-0.0351563 -0.398437,-0.43359375 v -1.8398438 h 0.691406 c 0.738281,0 0.867187,0.1992188 0.867187,0.8671875 h 0.246094 V -3.634125 H 33.72957 c 0,0.6679687 -0.128906,0.8671875 -0.867187,0.8671875 h -0.691406 v -1.6523438 c 0,-0.3984375 0.04687,-0.421875 0.398437,-0.421875 h 1.019531 c 1.148438,0 1.40625,0.3515625 1.523438,1.4296875 h 0.246094 z m 0,0"
         style="fill:#000000;fill-opacity:1;fill-rule:nonzero;stroke:none" />
      <path
         id="path94"
         d="m 43.983477,-6.5520938 c -1.640625,0 -3.527344,1.3007813 -3.949219,3.4921875 -0.04687,0.2226563 -0.07031,0.4335938 -0.07031,0.6328125 0,1.42968755 0.996094,2.53125005 2.683594,2.53125005 1.125,0 1.96875,-0.3515625 2.730469,-0.9375 -0.09375,-0.0820313 -0.117188,-0.1640625 -0.105469,-0.26953125 l 0.234375,-1.1601563 c 0.05859,-0.3515625 0.234375,-0.4101562 0.503906,-0.4335937 0.05859,-0.011719 0.09375,-0.035156 0.105469,-0.082031 l 0.04687,-0.2578125 -0.02344,-0.023437 c -0.28125,0.011719 -0.492188,0.023437 -0.878907,0.023437 -0.375,0 -0.761718,-0.011719 -1.207031,-0.023437 l -0.02344,0.023437 -0.04687,0.2578125 c -0.01172,0.046875 0.02344,0.082031 0.05859,0.082031 l 0.234375,0.011719 c 0.328125,0.035156 0.46875,0.09375 0.46875,0.2929688 0,0.035156 0,0.082031 -0.01172,0.1289062 l -0.304688,1.52343755 C 44.04207,-0.4231875 43.456133,-0.259125 42.940508,-0.259125 c -1.453125,0 -2.097656,-1.2421875 -2.097656,-2.4140625 0,-0.1992188 0.01172,-0.3984375 0.04687,-0.5859375 0.339843,-1.7460938 1.59375,-2.9296875 2.894531,-2.9296875 1.382812,0 1.734375,0.8203125 1.816406,1.6757812 l 0.292969,-0.058594 c 0,-0.421875 0.02344,-0.8203125 0.09375,-1.5351563 -0.574219,0 -0.84375,-0.4453125 -2.003906,-0.4453125 z m 0,0"
         style="fill:#000000;fill-opacity:1;fill-rule:nonzero;stroke:none" />
    </g>
    <path
       id="path95"
       d="M -95.11273,24.01494 H -5.3024 v 13.449 h -89.81033 z"
       style="fill:#ffffff;fill-opacity:0.4;fill-rule:nonzero;stroke:none"
       transform="matrix(1.3333333,0,0,-1.3333333,149.66933,81.637333)" />
    <path
       id="path96"
       d="M 6.3866563,-6.7728828 H 0.55071875 v 0.3046875 h 0.234375 c 0.77343755,0 0.78515625,0.1171875 0.78515625,0.46875 v 5.22656249 c 0,0.3515625 -0.011719,0.46875 -0.78515625,0.46875 h -0.234375 V 5.546875e-4 H 6.539 L 6.9491563,-2.5658516 H 6.7030625 c -0.2460937,1.5234375 -0.4921875,2.26171879 -2.25,2.26171879 h -1.5 c -0.46875,0 -0.4921875,-0.0703125 -0.4921875,-0.3984375 V -3.3627266 h 0.9726563 c 0.984375,0 1.125,0.2929688 1.125,1.1601563 H 4.8163438 V -4.8392891 H 4.5585313 c 0,0.8671875 -0.140625,1.1601563 -1.125,1.1601563 H 2.460875 v -2.390625 c 0,-0.328125 0.023437,-0.3984375 0.4921875,-0.3984375 h 1.4179688 c 1.5703125,0 1.8867187,0.515625 2.0390625,1.9335937 h 0.2578125 z m 5.7128907,4.8398437 h -0.246094 c -0.08203,0.796875 -0.175781,1.68750004 -1.570312,1.68750004 H 9.6503281 c -0.3515625,0 -0.3984375,-0.0351562 -0.3984375,-0.43359375 V -4.3705391 c 0,-0.5039062 0.1523438,-0.5039062 0.8906254,-0.5039062 v -0.2460938 c -0.2812504,0.011719 -0.9257816,0.035156 -1.2187504,0.035156 -0.2460937,0 -0.75,-0.023437 -1.1015625,-0.035156 v 0.2460938 c 0.6679688,0 0.7148438,0.058594 0.7148438,0.46875 v 3.69140624 c 0,0.41015625 -0.046875,0.46875 -0.7148438,0.46875 V 5.546875e-4 h 4.0898439 z m 5.267578,-3.1523437 h -4.429687 v 0.2460937 c 0.667968,0 0.714843,0.058594 0.714843,0.46875 v 3.65625004 c 0,0.41015625 -0.04687,0.46875 -0.714843,0.46875 V 5.546875e-4 h 4.546875 L 17.777281,-1.9330391 h -0.257812 c -0.164063,1.20703129 -0.398438,1.68750004 -1.675781,1.68750004 h -1.078125 c -0.351563,0 -0.398438,-0.0351562 -0.398438,-0.43359375 V -2.5189766 h 0.691406 c 0.738282,0 0.867188,0.1992188 0.867188,0.8671875 h 0.246094 v -1.9804687 h -0.246094 c 0,0.6679687 -0.128906,0.8671875 -0.867188,0.8671875 h -0.691406 v -1.6523438 c 0,-0.3984375 0.04687,-0.421875 0.398438,-0.421875 h 1.019531 c 1.148437,0 1.40625,0.3515625 1.523437,1.4296875 h 0.246094 z m 5.44043,0.4570312 c -0.210938,-0.2226562 -0.703125,-0.6328125 -1.453125,-0.6328125 -1.5,0 -2.789063,1.1835938 -2.789063,2.7070313 0,1.5117187 1.289063,2.69531249 2.789063,2.69531249 1.300781,0 2.085937,-1.04296875 2.085937,-1.89843749 0,-0.09375 0,-0.1640625 -0.128906,-0.1640625 -0.105469,0 -0.105469,0.058594 -0.117188,0.1640625 -0.07031,1.05468749 -0.925781,1.65234374 -1.769531,1.65234374 -0.492187,0 -2.003906,-0.26953125 -2.003906,-2.44921874 0,-2.2148438 1.546875,-2.4609375 1.992187,-2.4609375 0.738282,0 1.582032,0.5273437 1.769532,1.7929687 0.02344,0.070312 0.02344,0.1289063 0.128906,0.1289063 0.128906,0 0.128906,-0.058594 0.128906,-0.2460938 v -1.6757812 c 0,-0.1640625 0,-0.2460938 -0.09375,-0.2460938 -0.07031,0 -0.07031,0.023437 -0.152344,0.1171875 z m 6.533203,-0.4335937 h -4.886719 l -0.140625,1.6875 h 0.246094 c 0.09375,-1.2539063 0.292969,-1.4414063 1.394531,-1.4414063 0.550781,0 0.585938,0 0.585938,0.4335938 v 3.62109374 c 0,0.3984375 -0.03516,0.515625 -0.808594,0.515625 H 25.520445 V 5.546875e-4 C 25.907164,-0.03460156 26.50482,-0.03460156 26.903258,-0.03460156 c 0.398437,0 0.984375,0 1.371094,0.0351562475 V -0.24553906 h -0.210938 c -0.761719,0 -0.808594,-0.1171875 -0.808594,-0.515625 V -4.3822578 c 0,-0.4335938 0.03516,-0.4335938 0.585938,-0.4335938 1.078125,0 1.300781,0.1757813 1.394531,1.4414063 h 0.246094 z m 2.349609,0.6210937 c 0,-0.2460937 0.02344,-0.3515625 0.117188,-0.3984375 0.07031,-0.035156 0.339843,-0.035156 0.527343,-0.035156 0.726563,0 1.582032,0.035156 1.582032,1.1015625 0,0.3867187 -0.05859,1.1015625 -1.347657,1.1015625 h -0.878906 z m 1.769531,1.8984375 c 0.691407,-0.1757812 1.3125,-0.6210937 1.3125,-1.2304687 0,-0.703125 -0.890625,-1.3476563 -2.097656,-1.3476563 h -2.390625 v 0.2460938 c 0.667969,0 0.714844,0.058594 0.714844,0.46875 v 3.69140624 c 0,0.41015625 -0.04687,0.46875 -0.714844,0.46875 V 5.546875e-4 C 30.588805,-0.01116406 31.069273,-0.03460156 31.338805,-0.03460156 c 0.292968,0 0.808593,0.0234375 1.066406,0.0351562475 V -0.24553906 c -0.667969,0 -0.714844,-0.0585937 -0.714844,-0.46875 V -2.4486641 h 0.902344 c 0.246094,0 0.503906,0.011719 0.808594,0.3164063 0.210937,0.2226562 0.210937,0.4570312 0.210937,0.9023437 0,0.55078129 0,0.72656254 0.316406,1.04296879 0.1875,0.17578125 0.585938,0.328125 1.03125,0.328125 0.632813,0 0.785157,-0.62109375 0.785157,-0.8203125 0,-0.046875 0,-0.15234375 -0.128907,-0.15234375 -0.105468,0 -0.117187,0.09375 -0.117187,0.12890625 -0.07031,0.609375 -0.433594,0.62109375 -0.503906,0.62109375 -0.199219,0 -0.28125,-0.12890625 -0.339844,-0.234375 -0.08203,-0.1640625 -0.140625,-0.4453125 -0.269531,-1.07812504 -0.08203,-0.3515625 -0.1875,-0.8554687 -0.925782,-1.1484375 z m 7.983399,0 c 0,-1.4765625 -1.183594,-2.71875 -2.660156,-2.71875 -1.476563,0 -2.660157,1.2421875 -2.660157,2.71875 0,1.5117188 1.207032,2.68359379 2.660157,2.68359379 1.453125,0 2.660156,-1.17187499 2.660156,-2.68359379 z m -2.660156,2.42578129 c -0.703125,0 -1.804688,-0.57421875 -1.804688,-2.53124999 0,-1.875 1.136719,-2.3671875 1.804688,-2.3671875 0.679687,0 1.804687,0.5039062 1.804687,2.3671875 0,1.95703124 -1.089844,2.53124999 -1.804687,2.53124999 z m 5.088867,-4.87499999 c -0.09375,-0.1289063 -0.105469,-0.1289063 -0.292969,-0.1289063 h -1.195312 v 0.2460938 c 0.234375,0 0.515625,0 0.714843,0.070312 v 3.796875 c 0,0.23437499 0,0.76171874 -0.714843,0.76171874 V 5.546875e-4 c 0.199218,-0.0117187475 0.65625,-0.0351562475 0.855468,-0.0351562475 0.140625,0 0.609375,0.01171875 0.855469,0.0351562475 V -0.24553906 c -0.714844,0 -0.714844,-0.52734375 -0.714844,-0.76171874 v -3.5625 l 0.09375,0.1171875 3.128907,4.34765624 c 0.08203,0.1054687475 0.105468,0.1054687475 0.164062,0.1054687475 0.140625,0 0.140625,-0.0703124975 0.140625,-0.2578124975 V -4.1127266 c 0,-0.234375 0,-0.7617187 0.726563,-0.7617187 v -0.2460938 c -0.210938,0.011719 -0.667969,0.035156 -0.867188,0.035156 -0.140625,0 -0.597656,-0.011719 -0.855469,-0.035156 v 0.2460938 c 0.726563,0 0.726563,0.5273437 0.726563,0.7617187 v 2.953125 z m 12.899414,1.4296875 c 0.9375,-0.1757813 1.722656,-0.7851563 1.722656,-1.5585938 0,-0.890625 -0.984375,-1.6875 -2.320312,-1.6875 h -3.773438 v 0.3164063 h 0.246094 c 0.761719,0 0.785156,0.1054687 0.785156,0.46875 v 5.24999999 c 0,0.3515625 -0.02344,0.46875 -0.785156,0.46875 H 52.400328 V 5.546875e-4 h 4.042969 c 1.382812,0 2.332031,-0.8906249975 2.332031,-1.8281249875 0,-0.8320313 -0.808594,-1.59375 -2.003906,-1.7226563 z m -2.519531,-2.53125 c 0,-0.328125 0.02344,-0.3984375 0.492187,-0.3984375 h 1.359375 c 1.007813,0 1.417969,0.8085937 1.417969,1.3710937 0,0.703125 -0.585938,1.4765625 -1.710938,1.4765625 h -1.558593 z m 2.003906,2.671875 c 1.03125,0 1.523437,0.8789062 1.523437,1.59375 0,0.7265625 -0.597656,1.52343749 -1.664062,1.52343749 h -1.371094 c -0.46875,0 -0.492187,-0.0703125 -0.492187,-0.3984375 V -3.4213203 Z m 8.112305,-1.6640625 h -4.429688 v 0.2460937 c 0.667969,0 0.714844,0.058594 0.714844,0.46875 v 3.65625004 c 0,0.41015625 -0.04687,0.46875 -0.714844,0.46875 V 5.546875e-4 h 4.546875 L 64.778258,-1.9330391 h -0.257813 c -0.164062,1.20703129 -0.398437,1.68750004 -1.675781,1.68750004 h -1.078125 c -0.351562,0 -0.398437,-0.0351562 -0.398437,-0.43359375 V -2.5189766 h 0.691406 c 0.738281,0 0.867187,0.1992188 0.867187,0.8671875 h 0.246094 v -1.9804687 h -0.246094 c 0,0.6679687 -0.128906,0.8671875 -0.867187,0.8671875 h -0.691406 v -1.6523438 c 0,-0.3984375 0.04687,-0.421875 0.398437,-0.421875 h 1.019531 c 1.148438,0 1.40625,0.3515625 1.523438,1.4296875 h 0.246094 z m 3.975586,0.011719 c -0.05859,-0.1523437 -0.117188,-0.2109375 -0.222657,-0.2109375 -0.140625,0 -0.164062,0.058594 -0.210937,0.1875 l -1.605469,4.11328129 c -0.105469,0.26953125 -0.28125,0.71484375 -0.902344,0.73828125 V 5.546875e-4 C 65.624938,-0.02288281 65.906188,-0.03460156 66.128844,-0.03460156 c 0.164062,0 0.632812,0.0234375 0.832031,0.0351562475 V -0.24553906 c -0.421875,-0.0234375 -0.457031,-0.36328125 -0.457031,-0.45703125 0,-0.0703125 0,-0.09375 0.339844,-0.98437499 h 2.0625 l 0.222656,0.5625 c 0.08203,0.19921874 0.210937,0.53906249 0.210937,0.59765624 0,0.28125 -0.363281,0.28125 -0.527343,0.28125 V 5.546875e-4 C 69.081969,-0.01116406 69.667906,-0.03460156 69.867125,-0.03460156 c 0.339844,0 0.726563,0.0234375 0.960938,0.0351562475 V -0.24553906 c -0.550782,0 -0.644532,-0.0585937 -0.773438,-0.3984375 z m 0.46875,3.140625 h -1.863282 l 0.9375,-2.4023437 z M 76.787047,-4.82757 v 4.11328124 c 0,0.41015625 -0.04687,0.46875 -0.714844,0.46875 V 5.546875e-4 C 76.271422,-0.01116406 76.763609,-0.03460156 77.115172,-0.03460156 c 0.339844,0 0.703125,0.0234375 1.03125,0.0351562475 V -0.24553906 c -0.667969,0 -0.714844,-0.0585937 -0.714844,-0.46875 V -4.4056953 c 0,-0.4101563 0.04687,-0.46875 0.714844,-0.46875 v -0.2460938 h -1.207031 c -0.222657,0 -0.257813,0 -0.339844,0.1875 l -1.699219,4.18359379 -1.710937,-4.19531249 c -0.07031,-0.1757813 -0.128907,-0.1757813 -0.339844,-0.1757813 h -1.207031 v 0.2460938 c 0.667968,0 0.714843,0.058594 0.714843,0.46875 v 3.3984375 c 0,0.23437499 0,0.76171874 -0.714843,0.76171874 V 5.546875e-4 c 0.210937,-0.0117187475 0.65625,-0.0351562475 0.855468,-0.0351562475 0.152344,0 0.609375,0.01171875 0.855469,0.0351562475 V -0.24553906 c -0.714844,0 -0.714844,-0.52734375 -0.714844,-0.76171874 v -3.7382813 l 0.01172,-0.011719 1.863281,4.58203124 c 0.03516,0.08203125 0.08203,0.1757812475 0.1875,0.1757812475 0.09375,0 0.152344,-0.0937499975 0.1875,-0.1757812475 z m 5.645508,-0.1875 c 0,-0.1640625 0,-0.2460938 -0.09375,-0.2460938 -0.05859,0 -0.07031,0.011719 -0.222657,0.234375 -0.04687,0.046875 -0.152343,0.1992188 -0.1875,0.2578125 -0.375,-0.375 -0.832031,-0.4921875 -1.242187,-0.4921875 -0.914063,0 -1.570313,0.6796875 -1.570313,1.453125 0,0.5625 0.328125,0.890625 0.445313,1.0078125 0.292969,0.3046875 0.492187,0.3398438 1.40625,0.5507813 0.539062,0.1289062 0.644531,0.1523437 0.867187,0.3515625 0.05859,0.046875 0.328125,0.3164062 0.328125,0.75 0,0.50390624 -0.398437,1.04296874 -1.078125,1.04296874 -0.257812,0 -0.796875,-0.046875 -1.230468,-0.3984375 -0.445313,-0.33984375 -0.480469,-0.83203124 -0.480469,-1.10156254 -0.01172,-0.082031 -0.09375,-0.09375 -0.128906,-0.09375 -0.128907,0 -0.128907,0.070312 -0.128907,0.2578125 v 1.33593754 c 0,0.1640625 0,0.24609375 0.105469,0.24609375 0.05859,0 0.07031,-0.0117188 0.222656,-0.234375 0.04687,-0.046875 0.140625,-0.19921875 0.1875,-0.2578125 0.28125,0.2578125 0.808594,0.4921875 1.453125,0.4921875 0.960938,0 1.582032,-0.7734375 1.582032,-1.55859379 0,-0.6210937 -0.386719,-1.0195312 -0.386719,-1.03125 -0.375,-0.375 -0.527344,-0.4101562 -1.371094,-0.609375 -0.210937,-0.046875 -0.5625,-0.1289062 -0.621094,-0.1523437 -0.503906,-0.1992188 -0.65625,-0.5859375 -0.65625,-0.8789063 0,-0.4570312 0.398438,-0.9492187 1.066407,-0.9492187 1.265625,0 1.441406,1.1601562 1.476562,1.4882812 0.02344,0.058594 0.02344,0.1289063 0.128906,0.1289063 0.128907,0 0.128907,-0.058594 0.128907,-0.2460938 z m 0,0"
       style="fill:#000000;fill-opacity:1;fill-rule:nonzero;stroke:none"
       aria-label="ElectronBeams"
       transform="matrix(1.3333333,0,0,1.3333333,27.281333,45.190667)" />
    <path
       id="path97"
       d="m 44.42876,-80.74742 h 91.68158 v 25.40433 H 44.42876 Z"
       style="fill:#ffffff;fill-opacity:0.4;fill-rule:nonzero;stroke:none"
       transform="matrix(1.3333333,0,0,-1.3333333,149.66933,81.637333)" />
    <path
       id="path98"
       d="m 2.4618906,-6.0222422 c 0,-0.3632812 0.035156,-0.46875 0.8203125,-0.46875 h 0.2578125 v -0.3164062 c -0.3515625,0.035156 -1.1367187,0.035156 -1.5117187,0.035156 -0.3984375,0 -1.18359378,0 -1.52343753,-0.035156 v 0.3164062 h 0.2578125 c 0.78515623,0 0.80859373,0.1054688 0.80859373,0.46875 v 5.25000001 c 0,0.3515625 -0.023437,0.46875 -0.80859373,0.46875 h -0.2578125 v 0.3046875 c 0.33984375,-0.03515625 1.12500003,-0.03515625 1.51171873,-0.03515625 0.3867188,0 1.171875,0 1.5234375,0.03515625 v -0.3046875 H 3.2822031 c -0.7851562,0 -0.8203125,-0.1171875 -0.8203125,-0.46875 z m 3.5009766,1.03125 C 5.8691172,-5.1198984 5.8573984,-5.1198984 5.6698984,-5.1198984 H 4.4745859 v 0.2460937 c 0.234375,0 0.515625,0 0.7148438,0.070312 v 3.796875 c 0,0.23437501 0,0.76171876 -0.7148438,0.76171876 v 0.24609375 c 0.1992188,-0.01171875 0.65625,-0.03515625 0.8554688,-0.03515625 0.140625,0 0.609375,0.01171875 0.8554687,0.03515625 v -0.24609375 c -0.7148437,0 -0.7148437,-0.52734375 -0.7148437,-0.76171876 v -3.5625 l 0.09375,0.1171875 3.1289062,4.34765626 c 0.082031,0.10546875 0.1054688,0.10546875 0.1640625,0.10546875 0.140625,0 0.140625,-0.0703125 0.140625,-0.2578125 V -4.1120859 c 0,-0.234375 0,-0.7617188 0.7265625,-0.7617188 v -0.2460937 c -0.2109375,0.011719 -0.6679687,0.035156 -0.8671875,0.035156 -0.140625,0 -0.5976562,-0.011719 -0.8554687,-0.035156 v 0.2460937 c 0.7265625,0 0.7265625,0.5273438 0.7265625,0.7617188 v 2.953125 z m 9.5800778,-0.070312 h -4.886718 l -0.140625,1.6875 h 0.246093 c 0.09375,-1.2539062 0.292969,-1.4414062 1.394532,-1.4414062 0.550781,0 0.585937,0 0.585937,0.4335937 v 3.62109376 c 0,0.3984375 -0.03516,0.515625 -0.808594,0.515625 h -0.210937 v 0.24609375 c 0.386719,-0.03515625 0.984375,-0.03515625 1.382812,-0.03515625 0.398438,0 0.984375,0 1.371094,0.03515625 v -0.24609375 h -0.210937 c -0.761719,0 -0.808594,-0.1171875 -0.808594,-0.515625 V -4.3816172 c 0,-0.4335937 0.03516,-0.4335937 0.585937,-0.4335937 1.078125,0 1.300782,0.1757812 1.394532,1.4414062 h 0.246093 z m 5.361328,-0.023437 h -4.429687 v 0.2460938 c 0.667969,0 0.714844,0.058594 0.714844,0.46875 v 3.65624996 c 0,0.41015625 -0.04687,0.46875 -0.714844,0.46875 v 0.24609375 h 4.546875 L 21.31443,-1.9323984 h -0.257813 c -0.164062,1.20703121 -0.398437,1.68749996 -1.675781,1.68749996 h -1.078125 c -0.351563,0 -0.398438,-0.0351563 -0.398438,-0.43359375 V -2.5183359 h 0.691407 c 0.738281,0 0.867187,0.1992187 0.867187,0.8671875 h 0.246094 v -1.9804688 h -0.246094 c 0,0.6679688 -0.128906,0.8671875 -0.867187,0.8671875 h -0.691407 v -1.6523437 c 0,-0.3984375 0.04687,-0.421875 0.398438,-0.421875 h 1.019531 c 1.148438,0 1.40625,0.3515625 1.523438,1.4296875 h 0.246093 z m 2.542969,0.6445313 c 0,-0.2460938 0.02344,-0.3515625 0.117188,-0.3984375 0.07031,-0.035156 0.339843,-0.035156 0.527343,-0.035156 0.726563,0 1.582032,0.035156 1.582032,1.1015625 0,0.3867188 -0.05859,1.1015625 -1.347657,1.1015625 h -0.878906 z m 1.769531,1.8984375 c 0.691407,-0.1757813 1.3125,-0.6210938 1.3125,-1.2304688 0,-0.703125 -0.890625,-1.3476562 -2.097656,-1.3476562 h -2.390625 v 0.2460937 c 0.667969,0 0.714844,0.058594 0.714844,0.46875 v 3.69140626 c 0,0.41015625 -0.04687,0.46875 -0.714844,0.46875 v 0.24609375 c 0.304688,-0.01171875 0.785156,-0.03515625 1.054688,-0.03515625 0.292968,0 0.808593,0.0234375 1.066406,0.03515625 v -0.24609375 c -0.667969,0 -0.714844,-0.0585938 -0.714844,-0.46875 V -2.4480234 h 0.902344 c 0.246094,0 0.503906,0.011719 0.808594,0.3164062 0.210937,0.2226563 0.210937,0.4570313 0.210937,0.9023438 0,0.55078121 0,0.72656246 0.316406,1.04296871 0.1875,0.17578125 0.585938,0.328125 1.03125,0.328125 0.632813,0 0.785157,-0.62109375 0.785157,-0.8203125 0,-0.046875 0,-0.15234375 -0.128907,-0.15234375 -0.105468,0 -0.117187,0.09375 -0.117187,0.12890625 -0.07031,0.609375 -0.433594,0.62109375 -0.503906,0.62109375 -0.199219,0 -0.28125,-0.12890625 -0.339844,-0.234375 -0.08203,-0.1640625 -0.140625,-0.4453125 -0.269531,-1.07812496 -0.08203,-0.3515625 -0.1875,-0.8554688 -0.925782,-1.1484365 z m 5.660157,-2.53125 c -0.05859,-0.1523438 -0.117188,-0.2109375 -0.222657,-0.2109375 -0.140625,0 -0.164062,0.058594 -0.210937,0.1875 l -1.605469,4.11328121 c -0.105469,0.26953125 -0.28125,0.71484375 -0.902344,0.73828125 v 0.24609375 c 0.222657,-0.0234375 0.503907,-0.03515625 0.726563,-0.03515625 0.164062,0 0.632812,0.0234375 0.832031,0.03515625 v -0.24609375 c -0.421875,-0.0234375 -0.457031,-0.36328125 -0.457031,-0.45703125 0,-0.0703125 0,-0.09375 0.339844,-0.98437501 h 2.0625 l 0.222656,0.5625 c 0.08203,0.19921876 0.210937,0.53906251 0.210937,0.59765626 0,0.28125 -0.363281,0.28125 -0.527343,0.28125 v 0.24609375 c 0.269531,-0.01171875 0.855468,-0.03515625 1.054687,-0.03515625 0.339844,0 0.726563,0.0234375 0.960938,0.03515625 v -0.24609375 c -0.550782,0 -0.644532,-0.0585938 -0.773438,-0.3984375 z m 0.46875,3.140625 h -1.863282 l 0.9375,-2.4023438 z m 6.887695,-2.6953125 c -0.210938,-0.2226563 -0.703125,-0.6328125 -1.453125,-0.6328125 -1.5,0 -2.789063,1.1835937 -2.789063,2.7070312 0,1.5117188 1.289063,2.69531251 2.789063,2.69531251 1.300781,0 2.085937,-1.04296875 2.085937,-1.89843751 0,-0.09375 0,-0.1640625 -0.128906,-0.1640625 -0.105469,0 -0.105469,0.058594 -0.117187,0.1640625 -0.07031,1.05468751 -0.925782,1.65234376 -1.769532,1.65234376 -0.492187,0 -2.003906,-0.26953125 -2.003906,-2.44921876 0,-2.2148437 1.546875,-2.4609375 1.992188,-2.4609375 0.738281,0 1.582031,0.5273438 1.769531,1.7929688 0.02344,0.070312 0.02344,0.1289062 0.128906,0.1289062 0.128906,0 0.128906,-0.058594 0.128906,-0.2460937 v -1.6757813 c 0,-0.1640625 0,-0.2460937 -0.09375,-0.2460937 -0.07031,0 -0.07031,0.023437 -0.152343,0.1171875 z m 6.533203,-0.4335938 h -4.886719 l -0.140625,1.6875 h 0.246094 c 0.09375,-1.2539062 0.292969,-1.4414062 1.394531,-1.4414062 0.550782,0 0.585938,0 0.585938,0.4335937 v 3.62109376 c 0,0.3984375 -0.03516,0.515625 -0.808594,0.515625 h -0.210937 v 0.24609375 c 0.386718,-0.03515625 0.984375,-0.03515625 1.382812,-0.03515625 0.398438,0 0.984375,0 1.371094,0.03515625 v -0.24609375 h -0.210938 c -0.761718,0 -0.808593,-0.1171875 -0.808593,-0.515625 V -4.3816172 c 0,-0.4335937 0.03516,-0.4335937 0.585937,-0.4335937 1.078125,0 1.300781,0.1757812 1.394531,1.4414062 h 0.246094 z m 2.361328,0.6679688 c 0,-0.421875 0.04687,-0.4804688 0.761719,-0.4804688 v -0.2460937 c -0.339844,0.011719 -0.867188,0.035156 -1.125,0.035156 -0.257813,0 -0.773438,-0.023437 -1.113281,-0.035156 v 0.2460937 c 0.714843,0 0.761718,0.058594 0.761718,0.4804688 v 3.66796871 c 0,0.421875 -0.04687,0.48046875 -0.761718,0.48046875 v 0.24609375 c 0.339843,-0.01171875 0.855468,-0.03515625 1.113281,-0.03515625 0.257812,0 0.785156,0.0234375 1.125,0.03515625 v -0.24609375 c -0.714844,0 -0.761719,-0.0585938 -0.761719,-0.48046875 z m 6.972656,1.8515625 c 0,-1.4765625 -1.183593,-2.71875 -2.660156,-2.71875 -1.476562,0 -2.660156,1.2421875 -2.660156,2.71875 0,1.5117187 1.207031,2.68359371 2.660156,2.68359371 1.453125,0 2.660156,-1.17187501 2.660156,-2.68359371 z m -2.660156,2.42578121 c -0.703125,0 -1.804687,-0.57421875 -1.804687,-2.53125001 0,-1.875 1.136718,-2.3671875 1.804687,-2.3671875 0.679688,0 1.804688,0.5039063 1.804688,2.3671875 0,1.95703126 -1.089844,2.53125001 -1.804688,2.53125001 z m 5.088867,-4.87500001 c -0.09375,-0.1289062 -0.105468,-0.1289062 -0.292968,-0.1289062 h -1.195313 v 0.2460937 c 0.234375,0 0.515625,0 0.714844,0.070312 v 3.796875 c 0,0.23437501 0,0.76171876 -0.714844,0.76171876 v 0.24609375 c 0.199219,-0.01171875 0.65625,-0.03515625 0.855469,-0.03515625 0.140625,0 0.609375,0.01171875 0.855469,0.03515625 v -0.24609375 c -0.714844,0 -0.714844,-0.52734375 -0.714844,-0.76171876 v -3.5625 l 0.09375,0.1171875 3.128906,4.34765626 c 0.08203,0.10546875 0.105469,0.10546875 0.164063,0.10546875 0.140625,0 0.140625,-0.0703125 0.140625,-0.2578125 V -4.1120859 c 0,-0.234375 0,-0.7617188 0.726562,-0.7617188 v -0.2460937 c -0.210937,0.011719 -0.667969,0.035156 -0.867187,0.035156 -0.140625,0 -0.597657,-0.011719 -0.855469,-0.035156 v 0.2460937 c 0.726562,0 0.726562,0.5273438 0.726562,0.7617188 v 2.953125 z M 2.2861094,5.9191641 c -0.023437,-0.046875 -0.058594,-0.1289063 -0.058594,-0.1757813 0,-0.28125 0.5273438,-0.28125 0.8085938,-0.28125 V 5.1457266 c -0.3398438,0.035156 -1.0546875,0.035156 -1.4296875,0.035156 -0.4804688,0 -0.90234378,-0.023437 -1.26562503,-0.035156 v 0.3164062 c 0.76171873,0 0.84375003,0.035156 0.98437503,0.375 l 2.484375,6.1406252 c 0.058594,0.140625 0.082031,0.199219 0.234375,0.199219 0.1757812,0 0.1875,-0.05859 0.2460937,-0.199219 L 6.6572031,6.1066641 C 6.9150156,5.4621328 7.5712656,5.4621328 7.7587656,5.4621328 V 5.1457266 c -0.3046875,0.023437 -0.703125,0.035156 -0.9609375,0.035156 -0.3046875,0 -0.8789062,-0.023437 -1.1367187,-0.035156 v 0.3164062 c 0.5625,0.011719 0.703125,0.3046875 0.703125,0.4804688 0,0.058594 0,0.070312 -0.058594,0.1992187 L 4.3486094,11.028539 Z M 13.644508,9.4113516 c 0,-1.4765625 -1.183594,-2.71875 -2.660156,-2.71875 -1.4765629,0 -2.6601567,1.2421875 -2.6601567,2.71875 0,1.5117184 1.2070313,2.6835934 2.6601567,2.6835934 1.453125,0 2.660156,-1.171875 2.660156,-2.6835934 z m -2.660156,2.4257814 c -0.703125,0 -1.8046879,-0.574219 -1.8046879,-2.5312502 0,-1.875 1.1367189,-2.3671875 1.8046879,-2.3671875 0.679687,0 1.804687,0.5039063 1.804687,2.3671875 0,1.9570312 -1.089844,2.5312502 -1.804687,2.5312502 z m 7.877929,-1.816406 h -0.246094 c -0.08203,0.796875 -0.175781,1.6875 -1.570312,1.6875 h -0.632813 c -0.351562,0 -0.398437,-0.03516 -0.398437,-0.433594 V 7.5832266 c 0,-0.5039063 0.152344,-0.5039063 0.890625,-0.5039063 V 6.8332266 c -0.28125,0.011719 -0.925781,0.035156 -1.21875,0.035156 -0.246094,0 -0.75,-0.023437 -1.101563,-0.035156 v 0.2460937 c 0.667969,0 0.714844,0.058594 0.714844,0.46875 v 3.6914067 c 0,0.410156 -0.04687,0.46875 -0.714844,0.46875 v 0.246093 h 4.089844 z m 2.267578,-2.4726567 c 0,-0.4101562 0.04687,-0.46875 0.714844,-0.46875 V 6.8332266 c -0.28125,0.011719 -0.855469,0.035156 -1.078125,0.035156 -0.210937,0 -0.773437,-0.023437 -1.066406,-0.035156 v 0.2460937 c 0.667969,0 0.714844,0.058594 0.714844,0.4921875 v 2.15625 c 0,0.2578125 0,0.6210942 0.01172,0.7500002 0.09375,0.808594 0.890625,1.617187 1.992188,1.617187 1.160156,0 1.792969,-1.019531 1.804687,-1.746093 V 7.7004141 c 0.01172,-0.3984375 0.269532,-0.6210938 0.726563,-0.6210938 V 6.8332266 c -0.257813,0.023437 -0.785156,0.035156 -0.84375,0.035156 -0.28125,0 -0.5625,-0.011719 -0.84375,-0.035156 v 0.2460937 c 0.714844,0 0.714844,0.5273438 0.714844,0.7617188 v 2.3437499 c 0,1.148438 -0.855469,1.664063 -1.535157,1.664063 -0.292968,0 -1.3125,-0.128907 -1.3125,-1.617188 z m 9.858399,-0.421875 v 4.1132817 c 0,0.410156 -0.04687,0.46875 -0.714844,0.46875 v 0.246093 c 0.199219,-0.01172 0.691406,-0.03516 1.042969,-0.03516 0.339844,0 0.703125,0.02344 1.03125,0.03516 v -0.246093 c -0.667969,0 -0.714844,-0.05859 -0.714844,-0.46875 V 7.5480703 c 0,-0.4101562 0.04687,-0.46875 0.714844,-0.46875 V 6.8332266 h -1.207031 c -0.222657,0 -0.257813,0 -0.339844,0.1875 L 29.101539,11.20432 27.390602,7.0090078 C 27.320289,6.8332266 27.261695,6.8332266 27.050758,6.8332266 h -1.207031 v 0.2460937 c 0.667968,0 0.714843,0.058594 0.714843,0.46875 v 3.3984377 c 0,0.234375 0,0.761719 -0.714843,0.761719 v 0.246093 c 0.210937,-0.01172 0.65625,-0.03516 0.855468,-0.03516 0.152344,0 0.609375,0.01172 0.855469,0.03516 v -0.246093 c -0.714844,0 -0.714844,-0.527344 -0.714844,-0.761719 V 7.2082266 l 0.01172,-0.011719 1.863281,4.5820314 c 0.03516,0.08203 0.08203,0.175781 0.1875,0.175781 0.09375,0 0.152344,-0.09375 0.1875,-0.175781 z m 6.688476,-0.2578125 h -4.429687 v 0.2460938 c 0.667969,0 0.714844,0.058594 0.714844,0.46875 v 3.6562504 c 0,0.410156 -0.04687,0.46875 -0.714844,0.46875 v 0.246093 h 4.546875 l 0.292969,-1.933593 h -0.257813 c -0.164062,1.207031 -0.398437,1.6875 -1.675781,1.6875 h -1.078125 c -0.351563,0 -0.398438,-0.03516 -0.398438,-0.433594 V 9.4347891 h 0.691407 c 0.738281,0 0.867187,0.1992187 0.867187,0.8671879 h 0.246094 V 8.3215078 h -0.246094 c 0,0.6679688 -0.128906,0.8671875 -0.867187,0.8671875 H 34.676734 V 7.5363516 c 0,-0.3984375 0.04687,-0.421875 0.398438,-0.421875 h 1.019531 c 1.148438,0 1.40625,0.3515625 1.523438,1.4296875 h 0.246093 z m 4.514649,0.070312 c 0,-0.1640625 0,-0.2460937 -0.09375,-0.2460937 -0.05859,0 -0.07031,0.011719 -0.222656,0.234375 -0.04687,0.046875 -0.152344,0.1992187 -0.1875,0.2578125 -0.375,-0.375 -0.832032,-0.4921875 -1.242188,-0.4921875 -0.914062,0 -1.570312,0.6796875 -1.570312,1.453125 0,0.5625 0.328125,0.890625 0.445312,1.0078125 0.292969,0.3046875 0.492188,0.3398437 1.40625,0.5507812 0.539063,0.1289063 0.644531,0.1523438 0.867188,0.3515622 0.05859,0.04687 0.328125,0.316407 0.328125,0.75 0,0.503907 -0.398438,1.042969 -1.078125,1.042969 -0.257813,0 -0.796875,-0.04687 -1.230469,-0.398438 -0.445313,-0.339844 -0.480469,-0.832031 -0.480469,-1.101562 -0.01172,-0.08203 -0.09375,-0.09375 -0.128906,-0.09375 -0.128906,0 -0.128906,0.07031 -0.128906,0.257812 v 1.335938 c 0,0.164062 0,0.246093 0.105468,0.246093 0.05859,0 0.07031,-0.01172 0.222657,-0.234375 0.04687,-0.04687 0.140625,-0.199218 0.1875,-0.257812 0.28125,0.257812 0.808593,0.492187 1.453125,0.492187 0.960937,0 1.582031,-0.773437 1.582031,-1.558593 0,-0.6210937 -0.386719,-1.0195312 -0.386719,-1.0312499 -0.375,-0.375 -0.527344,-0.4101563 -1.371094,-0.609375 -0.210937,-0.046875 -0.5625,-0.1289063 -0.621093,-0.1523438 -0.503907,-0.1992187 -0.65625,-0.5859375 -0.65625,-0.8789062 0,-0.4570313 0.398437,-0.9492188 1.066406,-0.9492188 1.265625,0 1.441406,1.1601563 1.476562,1.4882813 0.02344,0.058594 0.02344,0.1289062 0.128907,0.1289062 0.128906,0 0.128906,-0.058594 0.128906,-0.2460937 z m 0,0"
       style="fill:#000000;fill-opacity:1;fill-rule:nonzero;stroke:none"
       aria-label="Interaction&#10;Volumes"
       transform="matrix(1.3333333,0,0,1.3333333,213.33467,168.932)" />
    <path
       id="path99"
       d="m 81.85335,27.29811 h 56.01463 v 13.449 H 81.85335 Z"
       style="fill:#ffffff;fill-opacity:0.4;fill-rule:nonzero;stroke:none"
       transform="matrix(1.3333333,0,0,-1.3333333,149.66933,81.637333)" />
    <path
       id="path100"
       d="m 0.809375,-6.4928125 c 0.7617188,0 0.7851563,0.1054688 0.7851563,0.46875 v 5.25 c 0,0.3515625 -0.023437,0.46875 -0.7851563,0.46875 H 0.56328125 V -6.25e-4 H 4.3367188 c 1.7460937,0 3.1992187,-1.4765625 3.1992187,-3.3515625 0,-1.8984375 -1.4296875,-3.4570312 -3.1992187,-3.4570312 H 0.56328125 v 0.3164062 z m 2.1328125,6.1875 C 2.4734375,-0.3053125 2.45,-0.375625 2.45,-0.70375 v -5.390625 c 0,-0.328125 0.023437,-0.3984375 0.4921875,-0.3984375 h 1.125 c 0.5507813,0 1.3359375,0.1640625 1.9101563,0.9375 0.4453125,0.5859375 0.5625,1.453125 0.5625,2.203125 0,1.0078125 -0.1875,1.7226563 -0.65625,2.2617188 -0.3984375,0.4570312 -1.0429688,0.7851562 -1.8164063,0.7851562 z m 10.1806645,-4.78125 H 8.6931641 v 0.2460938 c 0.6679687,0 0.7148437,0.058594 0.7148437,0.46875 v 3.65624995 c 0,0.41015625 -0.046875,0.46875 -0.7148437,0.46875 V -6.25e-4 h 4.5468749 l 0.292969,-1.9335937 h -0.257813 c -0.164062,1.2070312 -0.398437,1.68749995 -1.675781,1.68749995 h -1.078125 c -0.351562,0 -0.398437,-0.0351563 -0.398437,-0.43359375 v -1.8398437 h 0.691406 c 0.738281,0 0.867187,0.1992187 0.867187,0.8671875 h 0.246094 v -1.9804688 h -0.246094 c 0,0.6679688 -0.128906,0.8671875 -0.867187,0.8671875 h -0.691406 v -1.6523437 c 0,-0.3984375 0.04687,-0.421875 0.398437,-0.421875 h 1.019531 c 1.148438,0 1.40625,0.3515625 1.523438,1.4296875 h 0.246094 z m 6.084961,0.023437 h -4.886719 l -0.140625,1.6875 h 0.246094 c 0.09375,-1.2539062 0.292968,-1.4414062 1.394531,-1.4414062 0.550781,0 0.585937,0 0.585937,0.4335937 v 3.62109375 c 0,0.3984375 -0.03516,0.515625 -0.808593,0.515625 H 15.3875 V -6.25e-4 c 0.386719,-0.03515625 0.984375,-0.03515625 1.382813,-0.03515625 0.398437,0 0.984375,0 1.371093,0.03515625 v -0.24609375 h -0.210937 c -0.761719,0 -0.808594,-0.1171875 -0.808594,-0.515625 V -4.3834375 c 0,-0.4335937 0.03516,-0.4335937 0.585938,-0.4335937 1.078125,0 1.300781,0.1757812 1.394531,1.4414062 h 0.246094 z m 5.361328,-0.023437 h -4.429688 v 0.2460938 c 0.667969,0 0.714844,0.058594 0.714844,0.46875 v 3.65624995 c 0,0.41015625 -0.04687,0.46875 -0.714844,0.46875 V -6.25e-4 h 4.546875 l 0.292969,-1.9335937 h -0.257813 c -0.164062,1.2070312 -0.398437,1.68749995 -1.675781,1.68749995 h -1.078125 c -0.351562,0 -0.398437,-0.0351563 -0.398437,-0.43359375 v -1.8398437 h 0.691406 c 0.738281,0 0.867187,0.1992187 0.867187,0.8671875 h 0.246094 v -1.9804688 h -0.246094 c 0,0.6679688 -0.128906,0.8671875 -0.867187,0.8671875 h -0.691406 v -1.6523437 c 0,-0.3984375 0.04687,-0.421875 0.398437,-0.421875 h 1.019531 c 1.148438,0 1.40625,0.3515625 1.523438,1.4296875 h 0.246094 z m 5.440429,0.4570313 c -0.210937,-0.2226563 -0.703125,-0.6328125 -1.453125,-0.6328125 -1.5,0 -2.789062,1.1835937 -2.789062,2.7070312 0,1.5117188 1.289062,2.6953125 2.789062,2.6953125 1.300782,0 2.085938,-1.04296875 2.085938,-1.8984375 0,-0.09375 0,-0.1640625 -0.128906,-0.1640625 -0.105469,0 -0.105469,0.058594 -0.117188,0.1640625 -0.07031,1.0546875 -0.925781,1.65234375 -1.769531,1.65234375 -0.492188,0 -2.003906,-0.26953125 -2.003906,-2.44921875 0,-2.2148437 1.546875,-2.4609375 1.992187,-2.4609375 0.738281,0 1.582031,0.5273438 1.769531,1.7929688 0.02344,0.070312 0.02344,0.1289062 0.128907,0.1289062 0.128906,0 0.128906,-0.058594 0.128906,-0.2460937 V -5.01625 c 0,-0.1640625 0,-0.2460937 -0.09375,-0.2460937 -0.07031,0 -0.07031,0.023437 -0.152344,0.1171875 z m 6.533203,-0.4335938 h -4.886718 l -0.140625,1.6875 h 0.246093 c 0.09375,-1.2539062 0.292969,-1.4414062 1.394532,-1.4414062 0.550781,0 0.585937,0 0.585937,0.4335937 v 3.62109375 c 0,0.3984375 -0.03516,0.515625 -0.808594,0.515625 H 32.722461 V -6.25e-4 c 0.386719,-0.03515625 0.984375,-0.03515625 1.382812,-0.03515625 0.398438,0 0.984375,0 1.371094,0.03515625 V -0.24671875 H 35.26543 c -0.761719,0 -0.808594,-0.1171875 -0.808594,-0.515625 V -4.3834375 c 0,-0.4335937 0.03516,-0.4335937 0.585937,-0.4335937 1.078125,0 1.300782,0.1757812 1.394532,1.4414062 h 0.246093 z m 6.322266,2.5195313 c 0,-1.4765625 -1.183594,-2.71875 -2.660156,-2.71875 -1.476563,0 -2.660156,1.2421875 -2.660156,2.71875 0,1.5117187 1.207031,2.6835937 2.660156,2.6835937 1.453125,0 2.660156,-1.171875 2.660156,-2.6835937 z m -2.660156,2.4257812 c -0.703125,0 -1.804688,-0.57421875 -1.804688,-2.53125 0,-1.875 1.136719,-2.3671875 1.804688,-2.3671875 0.679687,0 1.804687,0.5039063 1.804687,2.3671875 0,1.95703125 -1.089843,2.53125 -1.804687,2.53125 z m 5.021484,-4.3242187 c 0,-0.2460938 0.02344,-0.3515625 0.117188,-0.3984375 0.07031,-0.035156 0.339843,-0.035156 0.527343,-0.035156 0.726563,0 1.582032,0.035156 1.582032,1.1015625 0,0.3867188 -0.05859,1.1015625 -1.347657,1.1015625 h -0.878906 z m 1.769531,1.8984375 c 0.691407,-0.1757813 1.3125,-0.6210938 1.3125,-1.2304688 0,-0.703125 -0.890625,-1.3476562 -2.097656,-1.3476562 h -2.390625 v 0.2460937 c 0.667969,0 0.714844,0.058594 0.714844,0.46875 v 3.69140625 c 0,0.41015625 -0.04687,0.46875 -0.714844,0.46875 V -6.25e-4 c 0.304688,-0.01171875 0.785156,-0.03515625 1.054688,-0.03515625 0.292968,0 0.808593,0.0234375 1.066406,0.03515625 v -0.24609375 c -0.667969,0 -0.714844,-0.0585938 -0.714844,-0.46875 V -2.4498437 h 0.902344 c 0.246094,0 0.503906,0.011719 0.808594,0.3164062 0.210937,0.2226563 0.210937,0.4570313 0.210937,0.9023438 0,0.5507812 0,0.72656245 0.316406,1.0429687 0.1875,0.17578125 0.585938,0.328125 1.03125,0.328125 0.632813,0 0.785157,-0.62109375 0.785157,-0.8203125 0,-0.046875 0,-0.15234375 -0.128907,-0.15234375 -0.105468,0 -0.117187,0.09375 -0.117187,0.12890625 -0.07031,0.609375 -0.433594,0.62109375 -0.503906,0.62109375 -0.199219,0 -0.28125,-0.12890625 -0.339844,-0.234375 -0.08203,-0.1640625 -0.140625,-0.4453125 -0.269531,-1.07812495 -0.08203,-0.3515625 -0.1875,-0.8554688 -0.925782,-1.1484375 z m 0,0"
       style="fill:#000000;fill-opacity:1;fill-rule:nonzero;stroke:none"
       aria-label="Detector"
       transform="matrix(1.3333333,0,0,1.3333333,263.23333,40.813333)" />
    <path
       id="path101"
       d="m -54.15067,-101.98796 h 33.53766 v 13.449 h -33.53766 z"
       style="fill:#ffffff;fill-opacity:0.4;fill-rule:nonzero;stroke:none"
       transform="matrix(1.3333333,0,0,-1.3333333,149.66933,81.637333)" />
    <path
       id="path102"
       d="m 4.2879609,-6.9145078 c -0.070312,-0.1757813 -0.070312,-0.2226563 -0.2460937,-0.2226563 -0.1523438,0 -0.1757813,0.058594 -0.2226563,0.1992188 l -2.203125,5.94140624 c -0.09375,0.234375 -0.2578125,0.6796875 -1.13671871,0.69140625 V -4.453125e-4 C 0.69030469,-0.01216406 1.0887422,-0.03560156 1.4871797,-0.03560156 c 0.4101562,0 0.984375,0.0234375 1.1484375,0.0351562475 V -0.30513281 c -0.5039063,0 -0.7382813,-0.2578125 -0.7382813,-0.50390625 0,-0.0585938 0,-0.0820313 0.058594,-0.19921874 l 0.46875,-1.2890625 h 2.6601562 l 0.5625,1.52343749 c 0.046875,0.12890625 0.046875,0.140625 0.046875,0.17578125 0,0.29296875 -0.5507812,0.29296875 -0.8085937,0.29296875 V -4.453125e-4 C 5.2371797,-0.03560156 5.9403047,-0.03560156 6.3153047,-0.03560156 c 0.421875,0 0.890625,0.01171875 1.3007812,0.0351562475 V -0.30513281 H 7.4403047 c -0.6328125,0 -0.7382813,-0.09375 -0.8320313,-0.375 z m 0.6796875,4.3007812 H 2.5418672 l 1.2070312,-3.28125 z M 12.631711,-5.0629453 H 7.7449922 l -0.140625,1.6875 h 0.2460937 c 0.09375,-1.2539063 0.2929688,-1.4414063 1.3945313,-1.4414063 0.5507812,0 0.5859375,0 0.5859375,0.4335938 v 3.62109374 c 0,0.3984375 -0.035156,0.515625 -0.8085938,0.515625 H 8.8113984 V -4.453125e-4 C 9.1981172,-0.03560156 9.7957734,-0.03560156 10.194211,-0.03560156 c 0.398437,0 0.984375,0 1.371094,0.0351562475 V -0.24653906 h -0.210938 c -0.761719,0 -0.808594,-0.1171875 -0.808594,-0.515625 V -4.3832578 c 0,-0.4335938 0.03516,-0.4335938 0.585938,-0.4335938 1.078125,0 1.300781,0.1757813 1.394531,1.4414063 h 0.246094 z m 6.322266,2.5195312 c 0,-1.4765625 -1.183594,-2.71875 -2.660157,-2.71875 -1.476562,0 -2.660156,1.2421875 -2.660156,2.71875 0,1.5117188 1.207031,2.68359379 2.660156,2.68359379 1.453125,0 2.660157,-1.17187499 2.660157,-2.68359379 z m -2.660157,2.42578129 c -0.703125,0 -1.804687,-0.57421875 -1.804687,-2.53124999 0,-1.875 1.136719,-2.3671875 1.804687,-2.3671875 0.679688,0 1.804688,0.5039062 1.804688,2.3671875 0,1.95703124 -1.089844,2.53124999 -1.804688,2.53124999 z m 8.771485,-4.71093749 v 4.11328124 c 0,0.41015625 -0.04687,0.46875 -0.714844,0.46875 V -4.453125e-4 C 24.54968,-0.01216406 25.041867,-0.03560156 25.39343,-0.03560156 c 0.339843,0 0.703125,0.0234375 1.03125,0.0351562475 V -0.24653906 c -0.667969,0 -0.714844,-0.0585937 -0.714844,-0.46875 V -4.4066953 c 0,-0.4101563 0.04687,-0.46875 0.714844,-0.46875 v -0.2460938 h -1.207032 c -0.222656,0 -0.257812,0 -0.339843,0.1875 l -1.699219,4.18359379 -1.710938,-4.19531249 c -0.07031,-0.1757813 -0.128906,-0.1757813 -0.339843,-0.1757813 h -1.207032 v 0.2460938 c 0.667969,0 0.714844,0.058594 0.714844,0.46875 v 3.3984375 c 0,0.23437499 0,0.76171874 -0.714844,0.76171874 v 0.2460937475 c 0.210938,-0.0117187475 0.65625,-0.0351562475 0.855469,-0.0351562475 0.152344,0 0.609375,0.01171875 0.855469,0.0351562475 V -0.24653906 c -0.714844,0 -0.714844,-0.52734375 -0.714844,-0.76171874 v -3.7382813 l 0.01172,-0.011719 1.863281,4.58203124 c 0.03516,0.08203125 0.08203,0.1757812475 0.1875,0.1757812475 0.09375,0 0.152344,-0.0937499975 0.1875,-0.1757812475 z m 0,0"
       style="fill:#000000;fill-opacity:1;fill-rule:nonzero;stroke:none"
       aria-label="Atom"
       transform="matrix(1.3333333,0,0,1.3333333,81.896,213.192)" />
    <path
       id="path103"
       d="m 41.33434,-14.19313 h 42.60092 v 13.449 H 41.33434 Z"
       style="fill:#ffffff;fill-opacity:0.4;fill-rule:nonzero;stroke:none"
       transform="matrix(1.3333333,0,0,-1.3333333,149.66933,81.637333)" />
    <path
       id="path104"
       d="m 5.8000547,-5.8714844 c 0.4453125,-0.6210937 1.2773437,-0.6210937 1.4765625,-0.6210937 v -0.3164063 c -0.3632813,0.011719 -0.7851563,0.035156 -1.1132813,0.035156 -0.3632812,0 -0.9140625,0 -1.2773437,-0.035156 v 0.3164063 c 0.421875,0.011719 0.5976562,0.2460937 0.5976562,0.4335937 0,0.046875 0,0.1171875 -0.1171875,0.2695313 l -1.21875,1.6992187 -1.40625,-1.96875 c -0.070312,-0.082031 -0.070312,-0.140625 -0.070312,-0.1523437 0,-0.1289063 0.2460938,-0.28125 0.6210938,-0.28125 v -0.3164063 c -0.3515625,0.035156 -1.078125,0.035156 -1.4648438,0.035156 -0.421875,0 -0.87890621,-0.011719 -1.30078121,-0.035156 v 0.3164063 h 0.1875 c 0.62109371,0 0.77343751,0.082031 0.94921871,0.3515625 l 1.9570313,2.7539062 -1.7460938,2.43750002 c -0.4453125,0.6328125 -1.24218746,0.64453125 -1.48828121,0.64453125 V -3.90625e-4 C 0.74927344,-0.01210938 1.1594297,-0.03554688 1.4992734,-0.03554688 c 0.3984375,0 0.8671875,0 1.265625,0.035156255 V -0.30507813 c -0.4453125,-0.0234375 -0.5859375,-0.28125 -0.5859375,-0.4453125 0,-0.0820313 0.035156,-0.15234375 0.1054688,-0.24609375 l 1.5351562,-2.12109372 1.6640625,2.36718747 c 0.082031,0.1171875 0.082031,0.12890625 0.082031,0.15234375 0,0.09375 -0.1640625,0.28125 -0.6210938,0.29296875 V -3.90625e-4 C 5.2961484,-0.03554688 6.0344297,-0.03554688 6.4094297,-0.03554688 c 0.3164062,0 0.9257812,0.01171875 1.3007812,0.035156255 V -0.30507813 h -0.1875 c -0.5039062,0 -0.7265625,-0.046875 -0.9609375,-0.36328125 L 4.3352109,-3.8207031 Z m 5.3437503,4.0078125 V -2.4378906 H 8.3664609 v 0.5742187 z m 3.178711,-1.6523437 v -2.578125 c 0,-0.2695313 0.02344,-0.3632813 0.257812,-0.3867188 0.09375,-0.011719 0.398438,-0.011719 0.597656,-0.011719 0.867188,0 2.179688,0 2.179688,1.4765625 0,1.0664062 -0.703125,1.5 -1.828125,1.5 z m 2.238281,0.1289062 c 1.195312,-0.2929687 1.828125,-0.9492187 1.828125,-1.6289062 0,-0.9609375 -1.21875,-1.7929688 -2.71875,-1.7929688 h -3.234375 v 0.3164063 h 0.246094 c 0.761718,0 0.785156,0.1054687 0.785156,0.46875 v 5.24999997 c 0,0.3515625 -0.02344,0.46875 -0.785156,0.46875 h -0.246094 v 0.304687505 c 0.363281,-0.035156255 1.066406,-0.035156255 1.464844,-0.035156255 0.386718,0 1.089843,0 1.453125,0.035156255 V -0.30507813 h -0.246094 c -0.761719,0 -0.785156,-0.1171875 -0.785156,-0.46875 V -3.2933594 h 1.242187 c 0.539063,0 0.855469,0.1992188 1.03125,0.3515625 0.375,0.375 0.375,0.6210938 0.375,1.3125 0,0.69140627 0,1.05468752 0.433594,1.44140627 0.363281,0.31640625 0.925781,0.41015625 1.277344,0.41015625 0.796875,0 0.984375,-0.8203125 0.984375,-1.1015625 0,-0.0585938 0,-0.16406252 -0.128907,-0.16406252 -0.117187,0 -0.117187,0.0820313 -0.128906,0.15234377 -0.07031,0.78515625 -0.480469,0.890625005 -0.691406,0.890625005 -0.527344,0 -0.597656,-0.445312505 -0.773438,-1.605468775 -0.117187,-0.6914062 -0.152343,-0.9492187 -0.46875,-1.265625 -0.210937,-0.2226562 -0.527343,-0.4101562 -0.914062,-0.515625 z m 6.5625,-1.6875 c -0.05859,-0.1523437 -0.117188,-0.2109375 -0.222656,-0.2109375 -0.140625,0 -0.164063,0.058594 -0.210938,0.1875 l -1.605469,4.11328127 c -0.105468,0.26953125 -0.28125,0.71484375 -0.902343,0.73828125 v 0.246093755 c 0.222656,-0.023437505 0.503906,-0.035156255 0.726562,-0.035156255 0.164063,0 0.632813,0.0234375 0.832031,0.035156255 V -0.24648438 c -0.421875,-0.0234375 -0.457031,-0.36328125 -0.457031,-0.45703125 0,-0.0703125 0,-0.09375 0.339844,-0.98437497 h 2.0625 l 0.222656,0.5625 c 0.08203,0.19921872 0.210938,0.53906247 0.210938,0.59765622 0,0.28125 -0.363282,0.28125 -0.527344,0.28125 v 0.246093755 c 0.269531,-0.011718755 0.855469,-0.035156255 1.054687,-0.035156255 0.339844,0 0.726563,0.0234375 0.960938,0.035156255 V -0.24648438 c -0.550781,0 -0.644531,-0.0585938 -0.773438,-0.3984375 z m 0.46875,3.140625 h -1.863281 l 0.9375,-2.4023437 z m 5.009766,-0.4453125 -1.371094,-2.0273437 c -0.04687,-0.070312 -0.117188,-0.1640625 -0.117188,-0.2695313 0,-0.1992187 0.28125,-0.1992187 0.398438,-0.1992187 v -0.2460938 c -0.257813,0.011719 -0.914063,0.035156 -1.066406,0.035156 -0.269532,0 -0.667969,-0.011719 -0.972657,-0.035156 v 0.2460938 c 0.515625,0 0.644532,0.058594 0.820313,0.328125 l 1.699219,2.4960937 v 1.33593752 c 0,0.41015625 -0.04687,0.46875 -0.714844,0.46875 v 0.246093755 c 0.304687,-0.011718755 0.773437,-0.035156255 1.054687,-0.035156255 0.292969,0 0.808594,0.0234375 1.066407,0.035156255 V -0.24648438 c -0.679688,0 -0.714844,-0.0585938 -0.714844,-0.50390625 V -2.0394531 l 1.441406,-2.1328125 c 0.363281,-0.5390625 0.691406,-0.6796875 1.078125,-0.703125 v -0.2460938 c -0.210937,0.023437 -0.492187,0.035156 -0.703125,0.035156 -0.269531,0 -0.539062,-0.011719 -0.808594,-0.035156 v 0.2460938 c 0.210938,0.023437 0.28125,0.140625 0.28125,0.3046875 0,0.1523437 -0.07031,0.2695312 -0.140625,0.375 z m 6.612304,-2.6367187 c 0,-0.1640625 0,-0.2460938 -0.09375,-0.2460938 -0.05859,0 -0.07031,0.011719 -0.222656,0.234375 -0.04687,0.046875 -0.152344,0.1992188 -0.1875,0.2578125 -0.375,-0.375 -0.832031,-0.4921875 -1.242188,-0.4921875 -0.914062,0 -1.570312,0.6796875 -1.570312,1.453125 0,0.5625 0.328125,0.890625 0.445312,1.0078125 0.292969,0.3046875 0.492188,0.3398438 1.40625,0.5507813 0.539063,0.1289062 0.644532,0.1523437 0.867188,0.3515625 0.05859,0.046875 0.328125,0.3164062 0.328125,0.75 0,0.50390622 -0.398438,1.04296872 -1.078125,1.04296872 -0.257813,0 -0.796875,-0.046875 -1.230469,-0.3984375 -0.445312,-0.33984375 -0.480469,-0.83203122 -0.480469,-1.10156252 -0.01172,-0.082031 -0.09375,-0.09375 -0.128906,-0.09375 -0.128906,0 -0.128906,0.070312 -0.128906,0.2578125 v 1.33593752 c 0,0.1640625 0,0.24609375 0.105469,0.24609375 0.05859,0 0.07031,-0.0117188 0.222656,-0.234375 0.04687,-0.046875 0.140625,-0.19921875 0.1875,-0.2578125 0.28125,0.2578125 0.808594,0.4921875 1.453125,0.4921875 0.960937,0 1.582031,-0.7734375 1.582031,-1.55859377 0,-0.6210937 -0.386719,-1.0195312 -0.386719,-1.03125 -0.375,-0.375 -0.527343,-0.4101562 -1.371093,-0.609375 -0.210938,-0.046875 -0.5625,-0.1289062 -0.621094,-0.1523437 -0.503906,-0.1992188 -0.65625,-0.5859375 -0.65625,-0.8789063 0,-0.4570312 0.398437,-0.9492187 1.066406,-0.9492187 1.265625,0 1.441406,1.1601562 1.476563,1.4882812 0.02344,0.058594 0.02344,0.1289063 0.128906,0.1289063 0.128906,0 0.128906,-0.058594 0.128906,-0.2460938 z m 0,0"
       style="fill:#000000;fill-opacity:1;fill-rule:nonzero;stroke:none"
       aria-label="X-Rays"
       transform="matrix(1.3333333,0,0,1.3333333,209.208,96.133333)" />
    <path
       id="path105"
       d="m -73.99992,-74.69583 h 15.70625 v 13.30121 h -15.70625 z"
       style="fill:#ffffff;fill-opacity:0.4;fill-rule:nonzero;stroke:none"
       transform="matrix(1.3333333,0,0,-1.3333333,149.66933,81.637333)" />
    <g
       id="g105"
       aria-label="ðœ‡&#10;ðœ–"
       transform="matrix(1.3333333,0,0,1.3333333,55.630667,173.70133)">
      <path
         id="path106"
         d="M 4.4752422,-3.4205313 C 4.5455547,-3.7369375 4.7330547,-4.36975 4.7330547,-4.36975 4.5689922,-4.3111563 4.4166484,-4.276 4.2408672,-4.276 c -0.1054688,0 -0.2578125,-0.011719 -0.3046875,-0.011719 -0.023437,0.3164063 -0.1289063,0.796875 -0.1992188,1.078125 l -0.515625,2.22656255 c -0.2695312,0.328125 -0.8085937,0.65625 -1.3242187,0.65625 -0.328125,0 -0.4453125,-0.22265625 -0.4453125,-0.5625 0,-0.16406255 0.035156,-0.36328125 0.082031,-0.57421875 l 0.65625,-2.90625 C 2.0260234,-4.3111563 1.8853984,-4.276 1.6978984,-4.276 c -0.1054687,0 -0.2578125,-0.011719 -0.3046875,-0.011719 v 0.070312 c 0,0.3046875 -0.09375,0.75 -0.1523437,1.0078125 l -0.48046876,2.0976563 c -0.046875,0.1875 -0.0585938,0.41015625 -0.09375,0.52734375 -0.046875,0.2109375 -0.1171875,0.38671875 -0.17578125,0.65625 C 0.20961719,1.302125 0.08071094,1.8294687 -0.13022656,2.1575937 l 0.0703125,0.1875 0.78515625,-0.3164062 C 1.0533672,1.2669687 1.1236797,0.07165625 1.1939922,0.00134375 c 0.09375,0.0703125 0.2578125,0.1171875 0.4335937,0.1171875 0.5625,0 1.0429688,-0.28125 1.5117188,-0.71484375 -0.023437,0.09375 -0.035156,0.1640625 -0.035156,0.234375 0,0.328125 0.1875,0.48046875 0.4453125,0.48046875 0.3515625,0 0.7148438,-0.24609375 1.0429688,-0.76171875 l -0.1757813,-0.140625 c -0.2109375,0.33984375 -0.328125,0.43359375 -0.4570312,0.43359375 -0.070312,0 -0.1171875,-0.0585938 -0.1171875,-0.1875 0,-0.140625 0.046875,-0.36328125 0.1171875,-0.69140625 z m 0,0"
         style="fill:#000000;fill-opacity:1;fill-rule:nonzero;stroke:none" />
      <path
         id="path107"
         d="m 7.3727031,-1.4136953 c 0.1875,0 0.328125,0.035156 0.4570313,0.09375 0.082031,0.046875 0.140625,0.09375 0.2109375,0.140625 l 0.1523437,-0.1523438 c -0.035156,-0.058594 -0.09375,-0.1054687 -0.1523437,-0.1640625 -0.1875,-0.1640625 -0.4453125,-0.2460937 -0.796875,-0.2460937 -0.328125,0 -0.8320313,0.1523437 -1.2421875,0.4804687 -0.4101563,0.31640629 -0.6796875,0.72656254 -0.796875,1.19531254 -0.035156,0.1640625 -0.046875,0.31640625 -0.046875,0.45703125 0,0.26953125 0.058594,0.4921875 0.1992187,0.70312501 0.2109375,0.3046875 0.5507813,0.4570312 1.0546875,0.4570312 0.328125,0 0.6328125,-0.082031 0.9140625,-0.2460937 C 7.5016094,1.1995859 7.6422344,1.1058359 7.7477031,0.98864844 L 7.6539531,0.88317969 C 7.5250469,0.98864844 7.3727031,1.0589609 7.2203594,1.1292734 7.0445781,1.1995859 6.8805156,1.2347422 6.6930156,1.2347422 6.3883281,1.2347422 6.1891094,1.1292734 6.0484844,0.96521094 5.8961406,0.78942969 5.8375469,0.56677344 5.8375469,0.29724219 c 0,-0.10546875 0,-0.19921875 0.023437,-0.31640625 h 1.6875 l 0.09375,-0.31640625 h -1.710937 c 0.1171875,-0.38671875 0.3164062,-0.67968749 0.5273437,-0.83203129 0.2929688,-0.234375 0.5742188,-0.2460937 0.796875,-0.2460937 z m 0,0"
         style="fill:#000000;fill-opacity:1;fill-rule:nonzero;stroke:none" />
    </g>
    <path
       id="path108"
       d="m -42.17029,7.00365 h 16.29536 v 13.30121 h -16.29536 z"
       style="fill:#ffffff;fill-opacity:0.4;fill-rule:nonzero;stroke:none"
       transform="matrix(1.3333333,0,0,-1.3333333,149.66933,81.637333)" />
    <g
       id="g108"
       aria-label="ðœ‡&#10;ð‘¥"
       transform="matrix(1.3333333,0,0,1.3333333,98.069333,64.770667)">
      <path
         id="path109"
         d="m 4.4772969,-3.4227266 c 0.070312,-0.3164062 0.2578125,-0.9492187 0.2578125,-0.9492187 -0.1640625,0.058594 -0.3164063,0.09375 -0.4921875,0.09375 -0.1054688,0 -0.2578125,-0.011719 -0.3046875,-0.011719 -0.023437,0.3164063 -0.1289063,0.796875 -0.1992188,1.078125 l -0.515625,2.22656254 c -0.2695312,0.328125 -0.8085937,0.65625 -1.3242187,0.65625 -0.328125,0 -0.4453125,-0.22265625 -0.4453125,-0.5625 0,-0.16406254 0.035156,-0.36328124 0.082031,-0.57421874 l 0.65625,-2.90625 c -0.1640625,0.058594 -0.3046875,0.09375 -0.4921875,0.09375 -0.1054687,0 -0.2578125,-0.011719 -0.3046875,-0.011719 v 0.070312 c 0,0.3046875 -0.09375,0.75 -0.1523437,1.0078125 l -0.48046877,2.0976563 c -0.046875,0.18749999 -0.0585938,0.41015624 -0.09375,0.52734374 -0.046875,0.2109375 -0.1171875,0.38671875 -0.17578125,0.65625 -0.28125,1.23046876 -0.41015625,1.75781246 -0.62109375,2.08593746 l 0.0703125,0.1875 0.78515625,-0.3164062 C 1.0554219,1.2647734 1.1257344,0.06946094 1.1960469,-8.515625e-4 1.2897969,0.06946094 1.4538594,0.11633594 1.6296406,0.11633594 c 0.5625,0 1.0429688,-0.28125 1.5117188,-0.71484375 -0.023437,0.09375 -0.035156,0.1640625 -0.035156,0.234375 0,0.328125 0.1875,0.48046875 0.4453125,0.48046875 0.3515625,0 0.7148438,-0.24609375 1.0429688,-0.76171875 l -0.1757813,-0.140625 c -0.2109375,0.33984375 -0.328125,0.43359375 -0.4570312,0.43359375 -0.070312,0 -0.1171875,-0.0585938 -0.1171875,-0.1875 0,-0.140625 0.046875,-0.36328125 0.1171875,-0.69140624 z m 0,0"
         style="fill:#000000;fill-opacity:1;fill-rule:nonzero;stroke:none" />
      <path
         id="path110"
         d="m 6.2497578,-0.75671094 0.2695313,0.7265625 -0.7265625,0.99609375 C 5.7106953,1.0714141 5.6286641,1.0948516 5.5817891,1.0948516 c -0.070312,0 -0.1523438,-0.011719 -0.2109375,-0.035156 -0.082031,-0.035156 -0.1523438,-0.046875 -0.234375,-0.046875 -0.1640625,0 -0.2929688,0.1171875 -0.2929688,0.28125 0,0.1875 0.28125,0.2695313 0.4570313,0.2695313 0.2578125,0 0.4570312,-0.1054688 0.796875,-0.5625 L 6.6247578,0.27453906 6.9294453,1.1534453 c 0.1054688,0.2929688 0.1875,0.4101563 0.4570313,0.4101563 0.2929687,0 0.6445312,-0.140625 0.890625,-0.515625 C 8.2536641,0.98938281 8.1716328,0.93078906 8.0896016,0.90735156 7.8903828,1.1534453 7.7849141,1.2120391 7.7028828,1.2120391 c -0.070312,0 -0.1289062,-0.09375 -0.1875,-0.26953129 l -0.421875,-1.171875 0.5976563,-0.82031251 c 0.1289062,-0.1640625 0.3164062,-0.1875 0.3632812,-0.1875 0.070312,0 0.1640625,0.011719 0.234375,0.070312 0.058594,0.035156 0.1757813,0.070312 0.2578125,0.070312 0.1054688,0 0.2460938,-0.140625 0.2460938,-0.3164062 0,-0.1757813 -0.1992188,-0.2929688 -0.3867188,-0.2929688 -0.3867187,0 -0.6445312,0.1289063 -1.0195312,0.6445313 L 6.9880391,-0.53405469 6.7771016,-1.1785859 c -0.140625,-0.375 -0.2226563,-0.5273438 -0.421875,-0.5273438 -0.1992188,0 -0.7851563,0.3046875 -1.0664063,0.4921875 0,0.082031 0.035156,0.1757813 0.1054688,0.22265626 0.09375,-0.0351563 0.3515625,-0.15234376 0.515625,-0.15234376 0.09375,0 0.1757812,0.011719 0.2109375,0.082031 0.035156,0.058594 0.09375,0.18749996 0.1289062,0.30468776 z m 0,0"
         style="fill:#000000;fill-opacity:1;fill-rule:nonzero;stroke:none" />
    </g>
  </g>
</svg>
